<?xml version="1.0" encoding="UTF-8"?>
<svg id="Layer_1" xmlns="http://www.w3.org/2000/svg" viewBox="0 0 472.2 464.4">
  <defs>
    <style>
      .cls-1 {
        fill: #f8bc19;
      }

      .cls-2 {
        fill: #febd18;
      }

      .cls-3 {
        fill: #febd19;
      }

      .cls-4 {
        fill: #febe1e;
      }

      .cls-5 {
        fill: #e68539;
      }

      .cls-6 {
        fill: #f2bd33;
      }

      .cls-7 {
        fill: #edc442;
      }

      .cls-8 {
        fill: #ea8031;
      }

      .cls-9 {
        fill: #fcba17;
      }

      .cls-10 {
        fill: #ecc343;
      }

      .cls-11 {
        fill: #edc447;
      }

      .cls-12 {
        fill: #e88233;
      }

      .cls-13 {
        fill: #fbbb17;
      }

      .cls-14 {
        fill: #f6bc20;
      }

      .cls-15 {
        fill: #fefefd;
      }

      .cls-16 {
        fill: #db925a;
      }

      .cls-17 {
        fill: #e88921;
      }

      .cls-18 {
        fill: #e88132;
      }

      .cls-19 {
        fill: #f8e297;
      }

      .cls-20 {
        fill: #eb802d;
      }

      .cls-21 {
        fill: #fefbf5;
      }

      .cls-22 {
        fill: #febd17;
      }

      .cls-23 {
        fill: #ea8131;
      }

      .cls-24 {
        fill: #f0c13b;
      }

      .cls-25 {
        fill: #f8bb17;
      }

      .cls-26 {
        fill: #f8bc16;
      }

      .cls-27 {
        fill: #f1c455;
      }

      .cls-28 {
        fill: #e4863c;
      }

      .cls-29 {
        fill: #f2d270;
      }

      .cls-30 {
        fill: #fabb16;
      }
    </style>
  </defs>
  <path class="cls-15" d="M472.2,464.4H0V0h472.2v464.4ZM326.77,195.52c.18-.26.35-.52.53-.77.74-.64,1.49-1.28,2.23-1.92,3.85-2.26,4.57-4.01,2.24-6.67-2.52,2.26-5.04,4.53-7.57,6.8-.43.33-.87.66-1.3,1-.6.44-1.2.87-1.81,1.31,0,0,.02-.02.02-.02-1.63,1.37-3.25,2.75-4.88,4.12,0,0,.04.01.04.01-.27.2-.54.41-.81.61-4.04,3.14-8.14,6.2-12.11,9.43-3.36,2.73-6.57,5.63-9.85,8.46-2.74,1.93-5.58,3.75-8.21,5.83-4.65,3.66-9.19,7.48-13.77,11.23l-.03.02c-1.41,1.18-2.81,2.36-4.22,3.54h0c-2.44,1.96-4.88,3.92-7.32,5.87v-.02c-3.2,2.61-6.4,5.23-9.6,7.84-.34.25-.69.5-1.03.75-.49.33-.99.66-1.48.98-.15,0-.27.06-.34.2-1.44,1.15-2.87,2.3-4.31,3.45h.01c-.83.75-1.66,1.51-2.49,2.27l.08.14s-.1-.12-.1-.12c-.96.5-2.02.86-2.86,1.52-3.74,2.93-7.44,5.91-11.09,8.94-1.43,1.19-2.69,2.57-4.02,3.87,0,0-.05.03-.05.03-1.53.9-3.2,1.63-4.58,2.72-10.17,8.07-20.31,16.2-30.42,24.35-3.91,3.15-7.72,6.42-11.57,9.64-.36.25-.71.51-1.07.76-.46.35-.92.7-1.37,1.06-1.96,1.59-3.92,3.18-5.89,4.77-.41.37-.81.75-1.22,1.12-2.44,1.79-4.93,3.52-7.28,5.41-.48.38-.44,1.4-.65,2.12l2.6.58c1.01-.01,2.02-.03,3.03-.04,1.57,0,3.13,0,4.7,0,4.42,0,8.84,0,13.26,0,.38,0,.75,0,1.13,0,7.21,0,14.43,0,21.64,0,2.57,0,5.15,0,7.72,0,.78.11,1.55.31,2.33.31,25.54.01,51.07.01,76.61-.01,1.06,0,2.13-.29,3.19-.44,2.51-.6,5.02-1.18,7.52-1.81,17.68-4.43,35.36-8.86,53.03-13.33,3.58-.91,3.91-1.67,3.08-5.37-2.16-9.62-4.35-19.24-6.4-28.89-2.88-13.54-5.65-27.1-8.47-40.65-.54-2.6-1.45-2.99-3.66-1.47-1.72,1.18-3.34,2.5-5.02,3.75-6.64,4.93-13.3,9.82-19.91,14.79-6.36,4.79-12.66,9.66-18.99,14.5-.6.52-1.21,1.04-1.81,1.56-1.96,1.41-3.92,2.82-5.88,4.23,0,0-.03.03-.03.03-.54.23-1.15.37-1.62.71-7.67,5.67-15.37,11.3-22.97,17.07-2.59,1.97-4.93,4.28-7.38,6.43,0,0-.09.04-.09.04-1.07.4-2.15.8-3.22,1.2-.27-.55-.54-1.1-.8-1.65.83-.96,1.58-1.99,2.5-2.85,5.47-5.17,11.04-10.22,16.46-15.45,7.88-7.6,15.65-15.31,23.47-22.98.09-.04.2-.06.27-.12,13.75-13.15,27.56-26.25,41.17-39.55,1.28-1.25,1.84-3.74,1.84-5.65,0-2.72-1.12-2.99-3.32-1.22-8.68,7.01-17.36,14.02-26.04,21.03-4.95,3.99-9.9,7.97-14.85,11.96-4.06,3.28-8.12,6.56-12.18,9.84,0,0,.01-.02.01-.02-2.16,1.55-4.41,2.99-6.47,4.66-3.92,3.18-7.73,6.49-11.58,9.75-.34.21-.69.43-1.03.64-.69.35-1.47.61-2.07,1.08-6.87,5.41-13.75,10.81-20.54,16.33-2.22,1.8-4.17,3.94-6.24,5.93l.02-.02c-.98.83-1.95,1.67-2.93,2.5-.17.12-.34.24-.51.36-.25,0-.5-.01-.75-.02-.58-.93-1.16-1.86-1.74-2.79.1-.22.19-.44.29-.66,1.72-1.36,3.54-2.61,5.12-4.12,3.47-3.31,6.82-6.75,10.21-10.13,0,0,0,0,0,0,3.23-3.17,6.46-6.34,9.68-9.51,0,0,0,.01,0,.01,1.33-1,2.78-1.87,3.97-3.01,6.67-6.4,13.3-12.84,19.89-19.33,6.02-5.93,11.95-11.94,17.92-17.92,1.03-.94,2.07-1.85,3.07-2.82,9.38-9.07,18.75-18.15,28.13-27.22.28-.32.55-.63.83-.95h-.02ZM112.95,195.16c-.49.46-.98.93-1.48,1.39-.9.89-1.8,1.79-2.7,2.68-1.86,1.26-1.95,2.92-1.08,4.8.92-.45,1.84-.9,2.75-1.34,1.52-1.31,3.04-2.61,4.56-3.92l1.35-.99c.35-.26.7-.52,1.05-.78.62-.55,1.23-1.1,1.85-1.65.38-.27.75-.55,1.13-.82.62-.52,1.24-1.04,1.86-1.55l1.37-1.15c.4-.35.79-.7,1.19-1.05,0,0,.05,0,.05,0,.32-.13.65-.27.97-.4,4.04-3.29,8.08-6.59,12.12-9.88l-.14-.1s.13.11.13.11c3.76-3.05,7.51-6.11,11.27-9.16.65-.57,1.29-1.14,1.94-1.72l2.41-1.76c.55-.42,1.11-.83,1.66-1.25.22-.14.44-.29.66-.43.8-.66,1.6-1.32,2.41-1.98.19-.2.38-.39.58-.59.2-.17.41-.33.61-.5,5.61-4.24,11.27-8.4,16.8-12.73,3.32-2.61,6.43-5.49,9.63-8.24,6.12-4.52,12.51-8.73,17.93-14.52-1.48-1.3-2.51-2.2-3.54-3.11-1.54-7.96-2.74-15.97-1.85-24.07,1.16-10.54,4.74-19.81,14.9-25.08,1.71.41,3.55.54,5.11,1.27,5.77,2.71,8.91,7.86,11.45,13.33,4.53,9.76,4.46,20.12,3.42,30.53-.51,5.12-1.17,5.44-6.42,5.63-3.73.13-7.45.59-11.17.91-.64.38-1.28.76-1.93,1.14-.75.62-1.51,1.24-2.26,1.86-.4.4-.8.8-1.19,1.2-.2.2-.4.4-.6.6-.42.39-.84.77-1.26,1.16-4.43,4.36-8.85,8.71-13.28,13.07-3.2,3.19-6.39,6.39-9.59,9.59-6.18,5.82-12.35,11.64-18.53,17.45l-.56.54c-.42.4-.84.81-1.26,1.21l.14.07-.14-.08c-.92.86-1.83,1.73-2.75,2.59-.22.22-.44.44-.67.66-.87.91-1.74,1.81-2.61,2.72-2.42,2.35-4.84,4.71-7.26,7.06,0,0-.02.05-.02.05-1.96,1.85-3.93,3.7-5.89,5.55-1.18,1.17-2.36,2.33-3.54,3.5-.41.42-.83.84-1.24,1.25l.13.09s-.12-.1-.12-.1c-.64.46-1.34.85-1.91,1.39-11.58,10.99-23.15,21.98-34.71,32.99-1.36,1.3-2.79,2.56-3.9,4.06-.6.81-.57,2.08-.82,3.15,1.06-.24,2.39-.15,3.14-.76,4.47-3.66,8.81-7.48,13.19-11.24,3.46-2.79,6.93-5.58,10.39-8.37,1.32-1.12,2.65-2.24,3.97-3.36.38-.34.76-.67,1.14-1.01,2.07-1.71,4.13-3.41,6.2-5.12,0,0,.04-.03.04-.03l4.24-3.6c.52-.44,1.05-.88,1.57-1.32.41-.4.82-.8,1.24-1.21,0,0-.01.01-.01.01,1.62-1.18,3.23-2.37,4.85-3.55h0c1.41-1.21,2.82-2.42,4.22-3.64.54-.45,1.09-.9,1.63-1.35.44-.35.88-.7,1.32-1.05h-.01c1.79-1.4,3.59-2.82,5.38-4.24.2-.18.4-.36.59-.54,3-2.41,6-4.82,9-7.23h-.01c1.82-1.57,3.65-3.14,5.47-4.72l-.13-.1.13.11c1.59-1.21,3.19-2.42,4.78-3.63h-.01c2.23-1.63,4.53-3.19,6.67-4.94,15.42-12.6,30.78-25.26,46.23-37.82,2.55-2.07,4.86-4.57,8.79-4.48,4.66.11,5.56-.92,5.74-5.64.42-10.98.61-22.02-3.05-32.55-1.6-4.6-4.44-8.77-6.72-13.13,0,0-.02-.04-.02-.04-.19-1.14-.38-2.29-.57-3.43,3.74.49,7.47.98,11.21,1.47l1.19.19c2.79,1.42,5.58,2.84,8.37,4.26.09.15.22.21.39.2,2.62,3.21,5.25,6.42,7.87,9.63l-.03-.03c1.18,3.39,2.35,6.77,3.53,10.16-.05.21,0,.39.15.54.18.68.37,1.36.55,2.04-.09.14-.07.26.05.37-.19,7.79-.38,15.58-.58,23.37-.06.32-.13.63-.19.95-1.79.34-3.57.78-5.38,1-3.12.38-6.97-.42-9.22,1.13-4.75,3.27-8.66,7.76-12.92,11.74-.42.43-.84.85-1.26,1.28-5.63,5.33-11.3,10.63-16.9,16.01-10.42,10.02-20.82,20.07-31.18,30.15-1.27,1.23-2.27,2.73-3.4,4.1-1.05.73-2.22,1.34-3.14,2.22-4.83,4.58-9.64,9.2-14.39,13.88-2.61,2.57-5.08,5.27-7.61,7.92l.12.11-.11-.11c-1.61,1.59-3.22,3.18-4.82,4.77-.34.2-.73.34-1.01.6-13.33,12.76-26.67,25.51-39.96,38.3-8.62,8.3-17.13,16.72-25.78,24.98-3.08,2.95-5.84,5.96-6.66,10.35-.93,4.99-1.98,9.96-2.99,14.94-.79,3.9-1.52,7.81-2.41,11.69-1.49,6.5-2.56,7.36,5.56,7.19,18.56-.38,37.13-.19,55.69-.11,3.07.01,5.7-.55,7.87-2.79,2.21-2.28,4.46-4.53,6.69-6.8,2.7-2.48,5.43-4.92,8.09-7.45,13.73-13.04,27.48-26.06,41.15-39.16,8.63-8.27,17.16-16.65,25.71-25.01,6.19-6.06,12.32-12.17,18.48-18.26.3-.31.59-.61.89-.92.53-.48,1.06-.96,1.59-1.45.16-.08.23-.21.21-.39.3-.29.6-.58.9-.87.25-.21.51-.42.76-.63.59-.57,1.18-1.15,1.77-1.72,6.96-6.65,13.93-13.29,20.86-19.97,4.06-3.91,8.07-7.87,12.1-11.81,0,0,.02-.02.02-.02,1.22-1.15,2.44-2.31,3.66-3.46,2.39-2.25,4.82-4.46,7.17-6.75,7.29-7.08,14.62-14.13,21.74-21.37,1.05-1.07,1.72-3.29,1.44-4.77-1.55-8.21-3.35-16.38-5.32-24.51-.26-1.06-1.94-2.49-2.99-2.51-7.77-.15-15.54,0-23.31.07-1.61-.06-3.21-.12-4.82-.17-.18-1.86-.56-3.72-.52-5.57.23-12.24,1-24.51-3.9-36.22-5.39-12.89-14.54-21.6-27.86-25.98-13.25-4.36-26.62-4.12-40.08-1.33-3.26-.42-6.51-.85-9.77-1.25-16.62-2.03-32.71-1.28-46.7,9.46-7.16,5.49-11.99,12.62-14.39,21.41-2.86,10.48-2.87,21.05-1.45,31.7.04,1.29-.1,2.61.15,3.86.54,2.67-.43,3.65-3.12,3.57-4.58-.14-9.17-.09-13.76-.02-1.02.02-2.03.49-3.04.75-.32.23-.64.46-.95.69-.51.81-1.29,1.56-1.47,2.43-2.89,13.94-5.73,27.9-8.49,41.87-.22,1.11.19,2.35.3,3.53,1.16-.44,2.53-.63,3.45-1.37,3.26-2.61,6.29-5.49,9.54-8.11,9.44-7.64,18.95-15.18,28.39-22.82,1.73-1.4,3.25-3.07,4.87-4.62v-.02c.21-.19.42-.38.63-.56.39-.23.77-.47,1.16-.7,3.61-2.74,7.25-5.45,10.81-8.27.39-.31.58-1.46.32-1.84-.37-.54-1.25-.97-1.93-1.01-2.09-.1-4.19-.03-6.28.06-2.03.09-3.22-.81-3.59-2.78-1.62-8.56-2.6-17.16-1.16-25.84,1.49-8.99,4.81-16.92,13.55-21.26,2.98-1.48,6.15-2.59,9.23-3.87.41-.05.81-.1,1.22-.16,1.16.02,2.37-.16,3.48.1,1.3.3,2.51.98,3.75,1.5-3.72,5.71-6.47,11.85-7.68,18.57-1.76,9.78-1.49,19.57.05,29.35.17,3.1-.12,6.05-2.52,8.38-.21.2-.42.41-.62.61-2.36,2.06-4.78,4.05-7.06,6.2-4.3,4.06-8.51,8.22-12.75,12.33-3.97,3.75-8.01,7.44-11.89,11.28-3.95,3.91-7.74,7.97-11.61,11.97l.11.12-.1-.13c-.43.41-.85.82-1.28,1.24-1.34,1.22-2.67,2.43-4.01,3.65-3.57,3.31-7.14,6.61-10.7,9.92l-5.97,5.92c-.22.14-.43.29-.65.43-.48.48-.95.97-1.43,1.45,0,0-.11.11-.11.12ZM309.93,363.76v32.74h8.99c0-1.87,0-3.55,0-5.23,0-3.42.73-4.09,4.04-3.33.84.19,1.69.97,2.24,1.7,1.39,1.82,2.55,3.82,3.94,5.64.48.63,1.34,1.3,2.07,1.34,2.75.16,5.51.06,8.81.06-2.49-3.67-4.7-6.92-6.89-10.15,5.78-4.62,7.42-8.8,5.74-14.35-1.46-4.82-5.92-8.13-11.94-8.37-5.57-.22-11.16-.05-17-.05ZM185.58,396.6c.15-.46.26-.65.26-.83.03-1.5.04-2.99.05-4.49.01-3.42.73-4.09,4.04-3.33.84.19,1.69.97,2.24,1.7,1.39,1.82,2.55,3.82,3.94,5.64.48.63,1.34,1.3,2.07,1.34,2.75.16,5.51.06,8.81.06-2.49-3.67-4.7-6.92-6.92-10.19.41-.35.61-.56.85-.71,4.77-3.02,6.14-7.51,5.1-12.73-1.01-5.06-4.55-8.27-9.49-8.69-6.49-.55-13.06-.13-19.64-.13v32.36h8.68ZM303.76,363.94h-25.57v32.59h26.1v-7.12h-16.83v-6h14.27v-7.12h-14.31v-5.44h16.34v-6.91ZM220.65,370.83h16.48v-6.96h-25.51v32.64h26.05v-7.11h-16.88v-6.07h14.32v-7.1h-14.47v-5.39ZM257.76,385.14c-2.86-6.89-5.37-13.06-8.02-19.17-.4-.91-1.43-2.08-2.26-2.16-2.73-.27-5.5-.1-8.54-.1.38,1.12.59,1.87.89,2.59,3.48,8.16,6.97,16.31,10.48,24.46,2.58,5.99,2.59,5.92,9.15,5.98,1.84.02,2.83-.45,3.58-2.24,3.87-9.29,7.9-18.51,11.86-27.77.38-.88.65-1.81,1.08-3.02-2.01,0-3.62.18-5.18-.04-2.92-.42-4.39.64-5.45,3.49-2.18,5.86-4.84,11.55-7.59,17.98ZM106.88,363.83v32.62h9.32v-11.18h14.16v-7.32h-14.09v-7.04h16.05v-7.07h-25.44ZM155.2,363.25c0,2.12-.16,4.02.07,5.87.11.85.83,1.95,1.58,2.33,3.62,1.83,5.23,4.77,5.24,8.68,0,4.02-1.59,7.09-5.39,8.87-.64.3-1.37,1.18-1.43,1.84-.19,2.06-.07,4.14-.07,6.22,9.13-.28,16.13-7.42,16.31-16.34.19-9.47-6.42-16.7-16.31-17.46ZM151.01,363.25c-10.2,1.22-16.73,8.79-16.09,18.17.59,8.54,7.88,15.66,16.09,15.48,0-.98-.07-1.97.01-2.94.24-2.68-.2-4.51-2.99-6.2-5.19-3.15-4.98-12.27.24-15.32,2.47-1.44,3-3,2.75-5.43-.12-1.17-.02-2.36-.02-3.74ZM169.74,430.4c-.44-.37-.63-.45-.68-.58-.72-2.17-1.42-4.35-2.12-6.52q-1.36-4.23-6.43-3.32c1.75,5.4,3.63,10.73,5.16,16.15.65,2.3,2.14,1.85,3.66,1.93,1.57.08,2.83.04,3.33-1.98.67-2.69,1.73-5.29,2.62-7.93,1.56,2.86,2.34,5.63,3.38,8.3.27.69,1.33,1.52,2.02,1.51,1.45-.01,3.91-.15,4.19-.91,2.13-5.62,3.83-11.4,5.68-17.19q-4.77-.54-6.13,3.62c-.79,2.39-1.61,4.77-2.61,7.75-1.17-3.64-2.29-6.62-3.07-9.69-.47-1.84-1.56-1.93-3.07-1.99-1.63-.06-2.57.37-3.06,2.04-.85,2.92-1.88,5.78-2.89,8.82ZM217.47,424.52v-5.71h-4.54v19h4.71c0-2.41-.08-4.6.02-6.79.08-1.76.84-3.17,2.86-3.14,2.02.04,2.33,1.55,2.34,3.15.02,2.26,0,4.52,0,6.8h4.85c0-3.16.13-6.14-.04-9.1-.18-3.13-2.39-5.12-5.53-5.07-1.45.03-2.89.5-4.69.84ZM272.64,423.87c0,3.25-.13,6.22.04,9.18.18,3.18,2.24,5.13,5.46,5.14,3.05,0,6.09-.31,9.26-.49v-13.78h-4.94c0,2.44.28,4.75-.12,6.95-.2,1.12-1.47,2.68-2.49,2.88-1.97.39-2.28-1.45-2.32-3.01-.06-2.25-.02-4.51-.02-6.88h-4.87ZM262.33,423.62c-4.73-.04-8.17,3.02-8.18,7.26,0,4.28,3.43,7.42,8.1,7.4,4.71-.02,8.04-3.13,8-7.47-.04-4.19-3.3-7.15-7.92-7.19ZM236.7,419.99c2.46,5.91,8.35,10.47,6.45,17.81h5.68c-1.91-7.51,4-12,6.34-17.84-6.33-2.3-6.17,4.31-9.14,6.51-2.6-2.94-2.99-8.78-9.33-6.48ZM210.85,436.66c-.95-.77-1.94-1.49-2.83-2.31-.58-.54-1.33-1.18-1.45-1.86-.23-1.32-.07-2.72-.07-4.14,1.23-.25,2.15-.43,3.06-.62v-3.17c-1.05-.19-1.99-.36-2.89-.52-.17-1.18-.33-2.22-.47-3.21h-3.71c-1.19,1.62-2.21,2.63-2.71,3.84-.37.88-.29,2.87.01,2.96,2.33.7,1.53,2.51,1.56,3.92.11,5.81,3.06,7.87,9.5,5.12ZM358.94,392.23c.01-3.26-1.86-5.14-5.12-5.13-2.97,0-5.48,2.32-5.51,5.06-.03,2.71,2.5,5.09,5.44,5.12,3.28.03,5.17-1.81,5.19-5.05ZM197.55,437.89v-13.93h-4.56v13.93h4.56ZM195.09,415.69c-1.33,1.91-2.8,3.14-2.61,3.99.24,1.04,1.91,2.46,2.89,2.42,1.02-.05,2.58-1.58,2.73-2.64.12-.86-1.48-1.96-3.01-3.77Z"/>
  <path class="cls-9" d="M288.77,126.4c1.61.06,3.21.12,4.82.17,0,19.73,0,39.46-.01,59.19-.8,1.37-1.59,2.75-2.39,4.12,0,0-.02.02-.02.02-1.24.49-2.74.69-3.66,1.53-3.43,3.15-6.64,6.55-9.99,9.79-1.58,1.53-3.19,3.09-5,4.31-1.85,1.25-4.34,1.7-4.26,4.74.01.49-.77,1.18-1.34,1.49-4.36,2.4-7.97,5.57-10.44,9.94-.27.78-.53,1.55-.8,2.33-.3.29-.6.58-.9.87-.91-1.16-1.54-1.02-1.89.4-1.19.8-2.38,1.6-3.57,2.4-2.31,2.25-4.6,4.53-6.94,6.74-.71.67-1.67,1.09-2.33,1.8-2.01,2.16-3.84,4.49-5.92,6.59-2.34,2.36-4.91,4.49-7.3,6.81-2.73,2.65-5.29,5.48-8.08,8.06-4.34,4.02-9.27,7.51-13.08,11.97-2.54,2.97-5.63,5.2-8.2,8.05-1.85,2.05-4,3.82-6.03,5.7-2.79,2.58-5.6,5.15-8.4,7.73-.65.6-1.3,1.22-1.87,1.89-1.27,1.47-2.37,3.09-3.76,4.43-2.18,2.09-4.61,3.93-6.8,6.01-2.31,2.19-4.49,4.52-6.69,6.83-1.93,2.03-3.81,4.11-5.71,6.17-1.52,1.23-3.25,2.27-4.51,3.72-3.45,3.98-7.27,6.11-12.93,5.93-13.36-.43-26.74-.1-40.12-.16-4.57-.02-9.13-.43-13.7-.44-2.94,0-3.62-.95-2.71-3.59.93-2.72,1.4-5.59,2.01-8.41.19-.86.07-1.79.28-2.65.67-2.8,1.55-5.56,2.11-8.39.71-3.6.47-7.57,1.93-10.8,2.2-4.87,6.03-8.72,10.76-11.52.83-.49,1.22-1.69,1.94-2.43,1.61-1.66,3.3-3.24,4.96-4.85.78-.28.89-1.29,1.45-1.83,3.23-3.13,6.6-6.11,9.87-9.2,6.69-6.34,13.35-12.72,20-19.11,1.4-1.34,2.63-2.85,4.02-4.2,2.86-2.77,5.76-5.49,8.66-8.22,2.19-2.06,4.14-4.56,6.68-6.02,2.29-1.32,3.32-2.6,2.74-5.12,2.94-.05,4.71-1.8,4.82-4.77l.11.11s-.12-.11-.12-.11c2.83.78,4.26-1.12,5.95-2.87,4.95-5.13,10.08-10.08,15.06-15.17,1.7-1.73,4.58-2.72,4.12-5.96,1.48-.96,3.11-1.75,4.41-2.91,3.76-3.35,7.4-6.84,11.06-10.29,1.21-1.14,2.31-2.4,3.53-3.53,4.05-3.75,8.17-7.43,12.18-11.22.75-.71.97-1.97,1.72-2.67,3.67-3.41,7.55-6.61,11.14-10.1,3.1-3,5.92-6.3,8.87-9.46.19,0,.38-.02.57-.04.39-.39.79-.78,1.18-1.17,1.66-1.45,3.51-2.74,4.94-4.39,3.54-4.08,7.25-7.48,13.3-6.47,1.9.32,3.92.13,5.86-.11.63-.08,1.15-1.03,1.73-1.59,5.56-.02,11.12-.04,16.68-.06ZM258.89,154.62c1.4-2.22,2.84-4.41,4.15-6.68.27-.47.18-1.73.03-1.76-.77-.2-1.88-.47-2.38-.08-1.35,1.06-2.46,2.44-3.66,3.69-.67.39-1.41.7-1.99,1.19-5.54,4.67-11.04,9.39-16.58,14.07-7.27,6.13-14.59,12.21-21.85,18.36-6.96,5.9-13.9,11.82-20.8,17.79-3.42,2.96-6.73,6.05-10.1,9.09-.47.16-1.03.21-1.38.51-5.73,4.74-11.49,9.43-17.08,14.32-1.24,1.08-1.21,2.83.76,3.55,4.74,1.74,9.48,3.52,14.31,5,2.61.8,3.97,2.02,3.41,4.84-3.97,4.77-8.01,9.49-11.9,14.32-2.52,3.13-4.85,6.41-7.27,9.62-1.26,1.19-2.71,2.24-3.75,3.6-2.07,2.71-3.91,5.59-5.85,8.39h0c-1.92,2.04-3.94,3.99-5.73,6.13-2.56,3.08-4.95,6.31-7.42,9.47-.03.18-.04.36-.04.54-.29.08-.69.07-.84.26-3.97,4.89-7.93,9.78-11.82,14.74-.31.39-.26,1.63,0,1.79.57.32,1.59.49,2.09.18,1.93-1.19,3.77-2.54,5.56-3.94,2.91-2.28,5.75-4.64,8.62-6.97h0c3.19-2.2,6.37-4.39,9.56-6.59,1.97-1.49,3.93-2.99,5.91-4.46,11.83-8.81,23.68-17.61,35.51-26.43,6.67-4.98,13.29-10.04,19.97-15.01,5.01-3.72,10.09-7.34,15.09-11.08.63-.47,1.47-1.6,1.29-2-.33-.71-1.29-1.31-2.11-1.58-3.5-1.13-7.05-2.06-10.56-3.16-2.92-.91-3.19-1.7-1.76-4.21,1.53-2.68,3.04-5.36,4.55-8.05,2.95-5.23,5.91-10.47,8.86-15.7,3.14-5.27,6.33-10.51,9.39-15.82,1.77-3.06,3.34-6.23,5-9.35.02-.18.02-.36.02-.54.39-.42.78-.84,1.16-1.26.21-.4.41-.79.62-1.19,1.91-3.03,3.89-6.03,5.7-9.12,1.22-2.08,2.2-4.3,3.29-6.45h0Z"/>
  <path class="cls-13" d="M227.98,290.52c-.1.22-.19.44-.29.66-.19,0-.37.02-.55.06-3.77.1-9.03,5.25-9.19,8.97-.34.18-.67.36-1.01.55-1.88.92-3.99,1.56-5.59,2.82-1.67,1.32-3,3.15-4.24,4.92-1.02,1.46-1.69,3.16-2.52,4.76.38.31.76.61,1.14.92,3.99-2.9,8.06-5.71,11.94-8.76,1.39-1.09,2.32-2.76,3.46-4.16.38-.15.76-.31,1.14-.46,2.45-1.63,4.94-3.2,7.33-4.93.43-.31.4-1.24.59-1.88.17-.12.34-.24.51-.36.98-.83,1.95-1.67,2.93-2.5,0,0-.02.02-.02.02.9-.25,1.97-.26,2.66-.78,3.97-3.02,7.82-6.2,11.78-9.23,1.07-.81,2.4-1.28,3.61-1.9.4-.4.81-.8,1.21-1.2.4-.4.79-.8,1.19-1.2l1.21-1.19s0,0,0,0c.71.12,1.42.23,2.41.39v-2.77c.19-.02.38-.02.57-.02,2.41-1.19,4.81-2.38,7.22-3.57.2-.4.4-.8.6-1.2,0-.4,0-.81-.01-1.21h0c.8-.8,1.59-1.6,2.39-2.4,0,0,0,0,0,0,1.2.4,2.4.8,3.6,1.21l.02.02c0,.8,0,1.59,0,2.39,0,1,0,2,0,3.01.06.88-.08,1.83.2,2.63.73,2.03-.05,2.78-2.01,2.76-.45-.38-.85-.93-1.37-1.08-.22-.06-.68.69-1.03,1.08h-3.22c-.1.35-.2.7-.3,1.05.88.35,1.76.7,3.25,1.3-1.64,1.35-3.2,2.65-5.04,4.17-.05.36-.17,1.24-.29,2.11-.19-.14-.38-.28-.57-.43-1.24,1.26-2.49,2.52-3.87,3.92-.79-.32-2.06-.84-3.48-1.42-.53,2.27,4.75,5.28-.42,5.32-2.67,2.75-4.88,5.02-7.15,7.37-1.11-1.03-2.07-1.91-3.55-3.27.23,3.16,1.92,5.69.08,8.09-1.26,1.26-2.51,2.52-4.18,4.2,1.78.44,2.71.68,3.2.8,1.44-1.64,2.68-3.05,3.92-4.47,0,0,.04.03.04.03,4.14-1.09,7.26-3.67,9.99-6.83.09-.1-.03-.38-.04-.58,0,0,.09-.04.09-.04.9-.25,1.94-.29,2.68-.79,2.04-1.38,3.91-2.99,5.91-4.43,5.42-3.9,10.99-7.59,16.25-11.7,2.66-2.07,4.77-4.85,7.13-7.31,0,0,.03-.03.03-.03.58-.14,1.21-.18,1.72-.44,3.62-1.88,3.61-1.89,3.62,2.28,0,15.58-.05,31.15.06,46.73.02,2.6-.48,3.62-3.41,3.6-24.66-.12-49.33-.08-73.99-.04-1.21,0-2.42.46-3.62.71-2.57,0-5.15,0-7.72,0-.6-.24-1.2-.69-1.81-.7-6.01-.05-12.02-.05-18.04,0-.6,0-1.2.46-1.8.7-.38,0-.75,0-1.13,0-2.94-.24-5.88-.6-8.83-.68-1.47-.04-2.95.44-4.42.68-1.57,0-3.13,0-4.7,0-.04-1.47-.09-2.93-.13-4.4l.05-.04c.4-.38.79-.76,1.19-1.15,0,0,.01-.01.01-.01.81-.79,1.61-1.58,2.42-2.37,3.67-.46,5.24-3.43,7.15-6,.03-.36.06-.71.09-1.07.36-.25.71-.51,1.07-.76.74.09,1.69.52,2.17.21,1.81-1.16,3.5-2.5,5.16-3.88,3.04-2.52,6.04-5.11,9.03-7.69,1.35-1.16,2.6-2.46,4-3.55,2.31-1.8,4.75-3.44,7.06-5.23,2.41-1.86,4.72-3.85,7.13-5.73,3.87-3.01,7.81-5.94,11.65-9,.37-.3.25-1.22.36-1.86,0,0,.05-.03.05-.03,1.17-.42,2.51-.6,3.46-1.3,3.3-2.42,6.57-4.92,9.66-7.61,1.81-1.58,3.25-3.6,4.85-5.42l.1.12s-.08-.14-.08-.14c2.05.57,2.85-.22,2.49-2.28,0,0-.01.01-.01.01,1.22-.17,2.45-.34,3.67-.52,1.04-.41,2.08-.83,3.36-1.34,1.5,1.41,3.21,3.02,4.69,4.41-.75,1.75-1.39,3.24-2.04,4.73.04.64.07,1.27.11,1.91,0,0,0-.01,0-.01-1.29.6-2.69,1.04-3.84,1.84-1.27.88-2.16,2.39-3.5,3.09-2,1.06-2.65,2.49-2.34,4.57,0,0,0,0,0,0-1.57.82-3.36,1.39-4.67,2.52-2.75,2.4-5.32,5.02-7.82,7.69-1.12,1.19-1.91,2.69-2.85,4.05ZM262.21,276.08c-.16-.07-.33-.14-.49-.21-.07.16-.23.36-.19.48.05.12.3.15.47.22.07-.16.14-.33.21-.49Z"/>
  <path class="cls-8" d="M296.02,268.12c6.33-4.84,12.62-9.71,18.99-14.5,6.6-4.97,13.27-9.86,19.91-14.79,1.68-1.25,3.3-2.57,5.02-3.75,2.21-1.52,3.12-1.13,3.66,1.47,2.82,13.55,5.59,27.11,8.47,40.65,2.05,9.65,4.24,19.27,6.4,28.89.83,3.69.5,4.46-3.08,5.37-17.67,4.48-35.35,8.9-53.03,13.33-2.5.63-5.01,1.21-7.52,1.81,0-.2,0-.41,0-.61.4-.97,1.14-1.94,1.15-2.92.09-9.37.05-18.74.05-28.1,0-6.08.05-12.16-.04-18.24-.02-1.47-.74-2.94-.75-4.4,0-1.4.5-2.81.78-4.21Z"/>
  <path class="cls-30" d="M123.38,127.49c.32-.23.64-.46.96-.69.29.09.57.18.86.26,1.73,1.64,5.6,1.63,7.27-.01.58,0,1.16,0,1.74,0,.39.37.76,1.06,1.16,1.07,2.85.1,5.7.1,8.55.01.38-.01.74-.72,1.11-1.1.38-1.2.77-2.4,1.15-3.59-.39-1.59-.78-3.17-1.17-4.76l-.03-.03c0-1.1-.02-2.19.03-3.29.46-11.02-1.58-22.25,4.56-32.67,2.28-3.87,3.53-8.35,6.96-11.54,1.27-1.18,3.08-2.05,3.79-3.49,1.66-3.35,5.01-4.04,7.81-5.22,4.23-1.8,8.9-2.53,13.25-4.1,3.45-1.24,6.84-2.41,10.54-2,2.8.31,5.57.9,8.37,1.11,2.23.16,4.51-.27,6.74-.08,3.12.27,6.21.87,9.32,1.33,3.85,1.58,7.95,2.76,11.49,4.86,3.1,1.84,5.57,4.74,8.31,7.17,1.01,1.71.47,4.71,3.76,4.53,0,0,.02.04.02.04-.48,2.09-.34,3.84,1.71,5.23.85.58,1.29,1.94,1.63,3.04.57,1.84.34,4.26,1.47,5.53,3.66,4.12,2.12,9.31,3.06,13.87,1.21,5.84.28,12.11.29,18.2,0,2.53-1.29,3.46-3.74,3.53-1.51.04-3.16.37-4.49,1.06-2.34,1.23-4.49,2.83-6.71,4.28-.61-.6-1.23-1.21-1.84-1.81,1.02-1.54,2.4-2.95,2.98-4.64.88-2.53,1.54-5.24,1.67-7.9.11-2.19-.97-4.43-1.01-6.65-.14-8.08-1.07-15.97-5.01-23.17-1.29-2.36-2.88-4.67-4.79-6.53-1.88-1.83-4.67-2.75-6.47-4.63-3.2-3.35-6.91-2.69-10.73-2.21-1.02-.21-2.03-.42-3.05-.62-1.34-2.16-3.06-1.22-4.75-.58-2.39,0-4.78.01-7.17.02-2.41-.19-4.82-.39-7.23-.58-.09-.71-.19-1.42-.33-2.52-1.3,1.43-2.29,2.52-3.28,3.62-1.19.23-2.39.46-3.58.69-.6.19-1.2.39-1.8.58-.91.02-2.16-.34-2.68.12-3.39,3-7.81,4.61-10.21,9.04-2.91,5.38-5.18,10.83-5.62,16.9-.28,3.77-.19,7.59,0,11.37.25,5.01.73,10.01,1.21,15,.05.52.64,1.27,1.12,1.4,1.89.54,3.83.89,5.75,1.27.86.17,1.74.25,2.61.37-1.56,2.15-3.15,3.74-5.03,4.8-1.62.92-2.4,1.94-2.17,3.75-.39.23-.77.47-1.16.7-.21.19-.41.38-.62.56,0,0,0,.02,0,.02-1.69.66-3.67.96-5.03,2.04-4.68,3.71-9.1,7.75-13.7,11.56-4.31,3.58-8.71,7.05-13.11,10.52-2.32,1.83-4.75,3.52-7.08,5.33-.91.71-1.63,1.65-2.55,2.36-.68.52-1.53.82-2.53,1.34.55-4.4,1.02-8.26,1.5-12.11.02-.2.06-.39.11-.59.75-3.18,1.57-6.35,2.24-9.55.59-2.87,1.03-5.76,1.5-8.66.71-4.38,1.38-8.77,2.07-13.16Z"/>
  <path class="cls-18" d="M236.15,70.74c-2.75-2.43-5.22-5.32-8.31-7.17-3.54-2.11-7.63-3.28-11.49-4.86.02-.47.04-.94.06-1.41,13.47-2.79,26.83-3.04,40.08,1.33,13.32,4.39,22.47,13.1,27.86,25.98,4.9,11.71,4.13,23.98,3.9,36.22-.04,1.85.34,3.71.52,5.57-5.56.02-11.12.04-16.68.06-.08-.49-.15-.98-.23-1.47.06-.32.13-.63.19-.95.8-1.56,2.2-3.09,2.29-4.68.29-5.55.17-11.13.03-16.69-.02-.68-1.14-1.33-1.74-2-.13-.11-.15-.23-.05-.37-.18-.68-.37-1.36-.55-2.04-.15-.15-.2-.33-.15-.54.44-.71,1.37-1.56,1.22-2.12-.5-1.82-1.24-3.62-2.17-5.27-.6-1.07-1.7-1.86-2.58-2.77,0,0,.03.03.03.03.2-4.81-3.8-9.7-7.87-9.63-.17.01-.3-.05-.39-.2-2.21-2.56-4.86-4.26-8.37-4.27-.4-.06-.79-.13-1.19-.19-.57-.47-1.09-1.29-1.7-1.36-3.83-.47-7.67-.78-11.51-1.13-.39-.02-.79-.04-1.18-.06Z"/>
  <path class="cls-23" d="M293.58,185.77c0-19.73,0-39.46.01-59.19,7.77-.06,15.54-.22,23.31-.07,1.05.02,2.73,1.46,2.99,2.51,1.97,8.12,3.77,16.29,5.32,24.51.28,1.48-.39,3.7-1.44,4.77-7.12,7.25-14.45,14.29-21.74,21.37-2.35,2.29-4.78,4.5-7.17,6.75-.43-.22-.85-.44-1.28-.66Z"/>
  <path class="cls-1" d="M231.31,128.24c.61.6,1.23,1.21,1.84,1.81-1.18,1.02-2.35,2.05-3.52,3.07-3.66,3.18-7.27,6.42-11.01,9.51-2.36,1.95-4.98,3.59-7.33,5.55-2.38,1.99-4.45,4.35-6.87,6.29-7.19,5.79-14.51,11.43-21.7,17.21-.45.36-.32,1.45-.45,2.2,0,0,.01-.01.01-.01-2.02.66-4.18,1.11-4.78,3.63l-.13-.11s.13.1.13.1c-2.29,1.04-4.91,1.7-5.47,4.73,0,0,.01-.01.01-.01-1.18.56-2.44,1-3.53,1.7-1.38.89-2.71,1.91-3.89,3.04-.69.66-1.06,1.65-1.58,2.49-.2.18-.4.36-.59.54-2.63.36-4.22,2.03-5.38,4.25,0,0,.01-.01.01-.01-.44.35-.88.7-1.32,1.05-.54.45-1.09.9-1.63,1.35-1.41,1.22-2.82,2.43-4.22,3.65,0,0,0-.01,0-.01-2.78-.4-3.6,1.87-4.85,3.55,0,0,.01-.01.01-.01-.41.4-.82.8-1.24,1.21-.52.44-1.05.88-1.57,1.32-2.55-.14-3.54,1.55-4.24,3.6,0,0-.04.03-.04.03-2.57,1.09-5.26,2.04-6.2,5.12-.38.34-.76.67-1.14,1.01-1.11,0-2.22,0-4.19,0,.04-.67-.32-2.22.25-2.76,4.21-3.94,8.68-7.62,12.9-11.55.89-.83,1.14-2.35,1.68-3.55l.12.1s-.13-.09-.13-.09c.41-.42.83-.84,1.24-1.25,1.18-1.17,2.36-2.33,3.54-3.5,1.96-1.85,3.93-3.7,5.89-5.55,0,0,.02-.05.02-.04,1.79-1.21,3.44-2.79,5.4-3.54,1.98-.76,2.24-1.83,1.86-3.53,2.52.67,2.65-.95,2.61-2.72.22-.22.44-.44.67-.66,1.5-.24,3.13-.35,2.75-2.59l.14.08s-.14-.07-.14-.07c.42-.4.84-.81,1.26-1.21.19-.18.37-.36.56-.54.91-.24,2.09-.2,2.68-.77,3.78-3.6,7.41-7.35,11.12-11.01.69-.68,1.48-1.56,2.34-1.73,2.41-.47,2.68-1.97,2.39-3.94.9-.22,2.03-.17,2.64-.71,2.12-1.88,4.15-3.9,6.03-6.03.61-.69.63-1.89.92-2.85,1.05-.35,2.33-.44,3.11-1.11,3.57-3.03,7.04-6.19,10.43-9.41.59-.56.63-1.7.93-2.57.04-.16.08-.33.14-.49,3.24-.37,4.18-1.38,3.99-4.31.64-.38,1.28-.76,1.93-1.14,1.03.4,2.05,1.11,3.09,1.14,4.16.14,8.33.06,12.5.07Z"/>
  <path class="cls-12" d="M193,71.32c2.39,0,4.78-.01,7.17-.02,1.58.19,3.17.38,4.75.57,1.02.21,2.03.42,3.05.62,1.79.96,3.58,1.91,5.37,2.87-10.16,5.27-13.74,14.54-14.9,25.08-.89,8.1.31,16.12,1.85,24.07-.05.65-.11,1.3-.16,1.96-.41,0-.83-.02-1.24-.03-.36,0-.72-.01-1.08-.02-4.03,0-8.05.02-12.08.03-.73-1.59-1.47-3.19-2.2-4.78-1.54-9.78-1.82-19.58-.05-29.35,1.21-6.73,3.96-12.86,7.68-18.57.61-.81,1.22-1.63,1.83-2.44Z"/>
  <path class="cls-2" d="M309.93,363.76c5.83,0,11.42-.18,17,.05,6.02.24,10.48,3.55,11.94,8.37,1.68,5.55.05,9.74-5.74,14.35,2.19,3.23,4.4,6.48,6.89,10.15-3.3,0-6.06.09-8.81-.06-.72-.04-1.59-.71-2.07-1.34-1.39-1.82-2.55-3.82-3.94-5.64-.56-.73-1.4-1.51-2.24-1.7-3.31-.75-4.03-.08-4.04,3.33,0,1.68,0,3.36,0,5.23h-8.99v-32.74ZM319.01,380.52c2.53,0,4.8.16,7.04-.04,2.38-.22,3.76-1.8,3.92-4.15.16-2.41-.82-4.44-3.36-4.89-2.45-.43-4.99-.36-7.6-.52v9.6Z"/>
  <path class="cls-2" d="M185.58,396.6h-8.68v-32.36c6.57,0,13.14-.41,19.64.13,4.94.42,8.47,3.63,9.49,8.69,1.04,5.22-.33,9.71-5.1,12.73-.24.15-.44.37-.85.71,2.22,3.27,4.43,6.52,6.92,10.19-3.3,0-6.06.09-8.81-.06-.72-.04-1.59-.71-2.07-1.34-1.39-1.82-2.55-3.82-3.94-5.64-.56-.73-1.4-1.51-2.24-1.7-3.31-.75-4.02-.08-4.04,3.33,0,1.5-.02,2.99-.05,4.49,0,.18-.11.37-.26.83ZM186.03,380.56c2.44,0,4.51.11,6.58-.03,2.67-.17,4.22-1.76,4.34-4.39.12-2.59-1.18-4.51-3.83-4.84-2.29-.29-4.65-.06-7.08-.06v9.32Z"/>
  <path class="cls-25" d="M198.9,126.46c.41,0,.83.02,1.24.03.43.55.87,1.1,1.34,1.7-1.11.59-1.95.9-2.6,1.42-3.5,2.81-7.03,5.59-10.37,8.58-1.14,1.02-1.75,2.62-2.6,3.96-1.14.38-2.42.54-3.38,1.18-2.65,1.79-5.14,3.8-7.73,5.68-1.85,1.34-3.84,2.5-5.62,3.93-1.39,1.12-2.34,3.01-3.87,3.69-3.03,1.35-4.34,3.93-5.83,6.49-.2.17-.41.33-.61.5-.61.19-1.21.38-1.82.57-.41.39-.83.79-1.24,1.18-.19.41-.38.83-.58,1.24-.55.42-1.11.83-1.66,1.25-.85.19-1.7.38-2.55.58-.31.22-.63.44-.94.66.29.16.58.33.88.49,0,0,.21.03.21.03-.65.57-1.29,1.14-1.94,1.72-.43-1.65-1.08-1.14-2.02-.33-2.31,2-4.56,4.14-7.12,5.76-1.57,1-2.71,1.72-2.13,3.73l-.13-.11s.14.1.14.1c-1.12.24-2.48.17-3.33.79-3.02,2.18-5.86,4.59-8.77,6.91-.33.86-.66,1.72-.99,2.58,0,0-.05,0-.05,0-.86.32-1.71.65-2.57.98-1.76.16-2.62.92-1.86,2.77-.38.27-.75.55-1.13.82-.4,0-.81-.01-1.21-.02-.76.37-1.49.89-2.3,1.07-.82.19-1.72.05-2.58.06-.07-.43-.15-.87-.22-1.3,0,0,.11-.11.11-.11.48-.48.95-.97,1.43-1.45.22-.14.43-.29.65-.43,2.63.43,4.98-1.32,5.91-4.4,3.55-3.22,7.12-6.42,10.62-9.7.31-.3.11-1.15.14-1.74,1.34-1.22,2.67-2.43,4.01-3.65.43-.41.85-.82,1.28-1.24l.1.13s-.11-.12-.11-.12c2.25-.24,3.58-1.4,5.01-3.31,2.32-3.09,5.56-5.46,8.25-8.29,2.67-2.81,5.19-5.75,8.88-6.47.94-1.88,1.77-3.52,2.59-5.16,3.92-3.54,7.85-7.07,11.77-10.62.59-.53,1.04-1.42,1.71-1.61,3.27-.91,3.75-3.95,5.11-6.32.21-.2.42-.41.62-.61,1.93-.73,4.54-.56,4.72-3.59,4.03,0,8.05-.02,12.08-.03.36,0,.72.01,1.08.02Z"/>
  <path class="cls-22" d="M303.76,363.94v6.91h-16.34v5.44h14.31v7.12h-14.27v6h16.83v7.12h-26.1v-32.59h25.57Z"/>
  <path class="cls-2" d="M220.65,370.83v5.39h14.47v7.1h-14.32v6.07h16.88v7.11h-26.05v-32.64h25.51v6.96h-16.48Z"/>
  <path class="cls-3" d="M257.76,385.14c2.75-6.43,5.41-12.12,7.59-17.98,1.06-2.85,2.53-3.91,5.45-3.49,1.56.22,3.17.04,5.18.04-.43,1.21-.71,2.14-1.08,3.02-3.96,9.25-7.99,18.48-11.86,27.77-.75,1.79-1.74,2.26-3.58,2.24-6.56-.06-6.57,0-9.15-5.98-3.5-8.15-6.99-16.3-10.48-24.46-.3-.71-.51-1.46-.89-2.59,3.04,0,5.81-.17,8.54.1.84.08,1.87,1.25,2.26,2.16,2.65,6.11,5.16,12.28,8.02,19.17Z"/>
  <path class="cls-2" d="M106.88,363.83h25.44v7.07h-16.05v7.04h14.09v7.32h-14.16v11.18h-9.32v-32.62Z"/>
  <path class="cls-5" d="M293.7,242.92c4.95-3.99,9.9-7.97,14.85-11.96,8.68-7.01,17.36-14.03,26.04-21.03,2.2-1.78,3.32-1.5,3.32,1.22,0,1.91-.56,4.4-1.84,5.65-13.61,13.3-27.41,26.4-41.17,39.55-.07.06-.18.08-.27.12-.19-.52-.53-1.03-.56-1.55-.18-3.47-.29-6.95-.42-10.42.02-.52.03-1.05.05-1.57Z"/>
  <path class="cls-26" d="M252.88,264.87c.64-1.49,1.29-2.98,2.04-4.73-1.49-1.4-3.2-3-4.69-4.41-1.28.51-2.32.93-3.36,1.34.21-.98.42-1.96.64-2.93.07-.13.18-.2.34-.2.49-.33.99-.66,1.48-.98.34-.25.69-.5,1.03-.75,3.17-2.13,6.35-4.25,9.47-6.44.25-.17.1-.92.13-1.4,0,0,0,.02,0,.02,3.63-.14,7.19-3,7.32-5.87,0,0,0,0,0,0,2.63.28,3.84-1.13,4.22-3.54,0,0,.03-.02.03-.02,1.08-.33,2.36-.4,3.21-1.04,5.39-4.03,10.66-8.22,16.02-12.27.79-.6,1.9-.78,2.86-1.16.02,1.23.03,2.45.05,3.68-.02.18-.02.37-.02.55,0,0-.02.03-.02.03-1.1,1.49-2.03,3.15-3.34,4.44-7.67,7.6-15.41,15.12-23.15,22.64-.77.75-1.69,1.36-2.52,2.06-.81.69-1.59,1.39-2.36,2.12-3.13,2.95-6.25,5.91-9.37,8.87Z"/>
  <path class="cls-7" d="M161.65,219.18c.58,2.52-.45,3.79-2.74,5.12-2.54,1.46-4.49,3.96-6.68,6.02-2.9,2.73-5.8,5.45-8.66,8.22-1.39,1.35-2.63,2.86-4.02,4.2-6.65,6.39-13.31,12.76-20,19.11-3.26,3.1-6.64,6.08-9.87,9.2-.56.54-.67,1.55-1.45,1.83-1.66,1.61-3.35,3.19-4.96,4.85-.72.74-1.11,1.94-1.94,2.43-4.74,2.8-8.57,6.65-10.76,11.52-1.46,3.23-1.22,7.2-1.93,10.8-.56,2.82-1.44,5.58-2.11,8.39-.2.86-.09,1.79-.28,2.65-.61,2.82-1.08,5.69-2.01,8.41-.9,2.64-.22,3.58,2.71,3.59,4.57.01,9.13.42,13.7.44,13.37.06,26.76-.27,40.12.16,5.66.18,9.48-1.95,12.93-5.93,1.26-1.45,2.99-2.49,4.51-3.72.15.35.3.71.45,1.07-2.23,2.26-4.48,4.52-6.69,6.8-2.17,2.24-4.8,2.81-7.87,2.79-18.56-.09-37.13-.27-55.69.11-8.12.17-7.05-.7-5.56-7.19.89-3.88,1.62-7.79,2.41-11.69,1.01-4.98,2.06-9.95,2.99-14.94.82-4.39,3.58-7.4,6.66-10.35,8.65-8.27,17.16-16.68,25.78-24.98,13.29-12.8,26.63-25.54,39.96-38.3.28-.26.67-.4,1.01-.6Z"/>
  <path class="cls-14" d="M293.65,244.5c.13,3.47.24,6.95.42,10.42.03.53.37,1.04.56,1.55-7.82,7.67-15.59,15.38-23.47,22.98-5.41,5.22-10.99,10.28-16.46,15.45-.92.86-1.67,1.9-2.5,2.85-2.59,2.4-5.18,4.81-7.77,7.21-.38.03-.76.06-1.14.09,1.84-2.4.16-4.93-.08-8.09,1.47,1.36,2.43,2.24,3.55,3.27,2.28-2.35,4.48-4.61,7.15-7.37,5.17-.04-.12-3.05.42-5.32,1.42.58,2.69,1.1,3.48,1.42,1.38-1.4,2.62-2.66,3.87-3.92.19.14.38.28.57.43.12-.87.24-1.74.29-2.11,1.84-1.52,3.4-2.81,5.04-4.17-1.49-.6-2.37-.95-3.25-1.3.1-.35.2-.7.3-1.05h3.22c.8,0,1.6,0,2.4,0,1.96.02,2.74-.72,2.01-2.76-.29-.8-.15-1.75-.2-2.63,1.08.37,2.17.75,3.94,1.36.17-1.08.93-2.65.46-3.63-1.16-2.37.38-3.74,1.29-6.03.46,1.01.57,1.58.91,1.95.67.73,1.47,1.35,2.21,2.02.33-1.15,1.03-2.33.92-3.43-.18-1.87-.82-3.71-1.38-5.52-.2-.63-.77-1.15-1.17-1.72.76-1.24,1.52-2.48,2.28-3.73,0,0-.01.02,0,.02,1.73-.91,3.58-1.66,5.16-2.77,2.42-1.7,4.65-3.65,6.97-5.49Z"/>
  <path class="cls-3" d="M155.2,363.25c9.89.77,16.5,7.99,16.31,17.46-.18,8.93-7.18,16.07-16.31,16.34,0-2.08-.12-4.16.07-6.22.06-.67.78-1.54,1.43-1.84,3.81-1.78,5.4-4.85,5.39-8.87,0-3.91-1.62-6.85-5.24-8.68-.75-.38-1.47-1.48-1.58-2.33-.24-1.85-.07-3.75-.07-5.87Z"/>
  <path class="cls-3" d="M151.01,363.25c0,1.38-.1,2.58.02,3.74.25,2.44-.28,3.99-2.75,5.43-5.23,3.05-5.43,12.17-.24,15.32,2.79,1.69,3.22,3.52,2.99,6.2-.09.98-.01,1.97-.01,2.94-8.21.18-15.5-6.94-16.09-15.48-.64-9.38,5.89-16.95,16.09-18.17Z"/>
  <path class="cls-4" d="M169.74,430.4c1.01-3.04,2.04-5.9,2.89-8.82.48-1.67,1.43-2.1,3.06-2.04,1.51.06,2.6.15,3.07,1.99.78,3.07,1.9,6.05,3.07,9.69,1-2.98,1.82-5.36,2.61-7.75q1.37-4.16,6.13-3.62c-1.85,5.79-3.55,11.57-5.68,17.19-.29.75-2.74.9-4.19.91-.69,0-1.76-.82-2.02-1.51-1.03-2.67-1.82-5.43-3.38-8.3-.89,2.64-1.95,5.24-2.62,7.93-.5,2.02-1.76,2.06-3.33,1.98-1.52-.08-3.02.37-3.66-1.93-1.53-5.42-3.41-10.75-5.16-16.15q5.07-.91,6.43,3.32c.7,2.18,1.4,4.35,2.12,6.52.04.13.24.21.68.58Z"/>
  <path class="cls-11" d="M158.67,317.54c-.15-.36-.3-.71-.45-1.07,1.9-2.06,3.77-4.14,5.71-6.17,2.2-2.31,4.38-4.63,6.69-6.83,2.19-2.08,4.62-3.91,6.8-6.01,1.39-1.33,2.49-2.96,3.76-4.43.58-.67,1.22-1.29,1.87-1.89,2.79-2.58,5.6-5.15,8.4-7.73,2.03-1.88,4.18-3.65,6.03-5.7,2.57-2.85,5.66-5.08,8.2-8.05,3.81-4.46,8.74-7.95,13.08-11.97,2.79-2.58,5.35-5.41,8.08-8.06,2.39-2.31,4.96-4.44,7.3-6.81,2.07-2.09,3.9-4.43,5.92-6.59.66-.71,1.62-1.12,2.33-1.8,2.34-2.22,4.63-4.49,6.94-6.74.93-.02,1.85-.04,2.78-.05-6.16,6.09-12.29,12.2-18.48,18.26-8.54,8.36-17.07,16.74-25.71,25.01-13.67,13.1-27.42,26.12-41.15,39.16-2.66,2.52-5.39,4.97-8.09,7.45Z"/>
  <path class="cls-28" d="M293.67,224.15c-.02-1.23-.03-2.45-.05-3.68-.04-.86-.07-1.73-.11-2.59,3.28-2.83,6.49-5.74,9.85-8.46,3.97-3.22,8.07-6.29,12.11-9.43.27-.2.54-.41.81-.62,0,0-.04-.01-.04-.01,2.6-.22,4.22-1.6,4.88-4.12,0,0-.02.02-.02.02.6-.44,1.2-.87,1.8-1.31.43-.33.87-.66,1.3-1,1.04-.49,2.07-.99,3.12-1.46.74-.34,1.5-.63,2.25-.95h.01c-.02.77-.04,1.53-.06,2.28-.74.64-1.49,1.28-2.23,1.92-.18.26-.35.52-.53.77,0,0,.02,0,.02,0-.28.32-.55.63-.83.95-9.37,9.08-18.75,18.15-28.13,27.22-1,.97-2.05,1.88-3.07,2.82-.38-.59-.76-1.19-1.14-1.78,0,0,.02-.03.02-.03.07-.05.21-.12.2-.15-.04-.14-.12-.27-.19-.4Z"/>
  <path class="cls-11" d="M182.26,173.88c.14-.75,0-1.84.45-2.2,7.2-5.78,14.51-11.42,21.7-17.21,2.41-1.94,4.49-4.31,6.87-6.29,2.35-1.96,4.97-3.6,7.33-5.55,3.73-3.09,7.34-6.33,11.01-9.51,1.18-1.02,2.35-2.05,3.52-3.07,2.23-1.45,4.37-3.05,6.71-4.28,1.33-.69,2.97-1.02,4.49-1.06,2.45-.06,3.75-1,3.74-3.53,0-6.09.92-12.37-.29-18.2-.94-4.56.6-9.75-3.06-13.87-1.13-1.27-.89-3.69-1.47-5.53-.34-1.09-.78-2.46-1.63-3.04-2.05-1.39-2.19-3.15-1.71-5.23,2.28,4.36,5.12,8.53,6.72,13.13,3.65,10.53,3.47,21.57,3.05,32.55-.18,4.72-1.08,5.75-5.74,5.64-3.93-.09-6.23,2.41-8.79,4.48-15.45,12.55-30.81,25.22-46.23,37.82-2.14,1.75-4.45,3.3-6.67,4.95Z"/>
  <path class="cls-10" d="M216.41,57.3c-.02.47-.04.94-.06,1.41-3.1-.46-6.2-1.06-9.32-1.33-2.23-.19-4.5.24-6.74.08-2.8-.21-5.57-.8-8.37-1.11-3.71-.41-7.09.76-10.54,2-4.35,1.56-9.02,2.3-13.25,4.1-2.79,1.19-6.15,1.87-7.81,5.22-.71,1.44-2.53,2.31-3.79,3.49-3.44,3.19-4.69,7.68-6.96,11.54-6.14,10.42-4.1,21.65-4.56,32.67-.05,1.09-.02,2.19-.03,3.29-.3,0-.59-.01-.89-.02-1.42-10.65-1.41-21.22,1.45-31.7,2.4-8.79,7.23-15.92,14.39-21.41,13.99-10.74,30.08-11.49,46.7-9.46,3.26.4,6.51.83,9.77,1.25Z"/>
  <path class="cls-11" d="M123.38,127.49c-.69,4.39-1.36,8.77-2.07,13.16-.47,2.89-.91,5.79-1.5,8.66-.66,3.2-1.48,6.37-2.24,9.55-.05.19-.08.39-.11.59-.48,3.85-.96,7.71-1.5,12.11,1.01-.52,1.85-.82,2.53-1.34.91-.7,1.64-1.65,2.55-2.36,2.33-1.81,4.76-3.5,7.08-5.33,4.4-3.47,8.8-6.95,13.11-10.52,4.6-3.81,9.02-7.85,13.7-11.56,1.36-1.08,3.34-1.38,5.03-2.04-1.62,1.55-3.14,3.21-4.87,4.62-9.44,7.64-18.96,15.18-28.39,22.82-3.24,2.63-6.28,5.51-9.54,8.11-.92.74-2.29.93-3.45,1.37-.12-1.18-.52-2.42-.3-3.53,2.76-13.97,5.6-27.92,8.49-41.87.18-.87.97-1.62,1.47-2.43Z"/>
  <path class="cls-22" d="M217.47,424.52c1.8-.34,3.24-.82,4.69-.84,3.14-.05,5.35,1.94,5.53,5.07.17,2.96.04,5.95.04,9.1h-4.85c0-2.28.02-4.54,0-6.8-.02-1.61-.33-3.12-2.34-3.15-2.03-.04-2.78,1.38-2.86,3.14-.1,2.18-.02,4.37-.02,6.79h-4.71v-19h4.54v5.71Z"/>
  <path class="cls-11" d="M178.58,72.52c1.19-.23,2.39-.46,3.58-.68.19.16.37.32.56.48-3.08,1.28-6.25,2.39-9.23,3.87-8.75,4.34-12.06,12.28-13.55,21.26-1.44,8.68-.46,17.28,1.16,25.84.37,1.98,1.57,2.87,3.59,2.78,2.09-.09,4.19-.16,6.28-.06.68.03,1.55.47,1.93,1.01.26.38.07,1.53-.32,1.84-3.55,2.82-7.19,5.53-10.81,8.27-.23-1.81.54-2.83,2.17-3.75,1.88-1.06,3.47-2.65,5.03-4.8-.87-.12-1.75-.2-2.61-.37-1.93-.38-3.87-.73-5.75-1.27-.48-.14-1.08-.89-1.12-1.4-.48-4.99-.96-9.99-1.21-15-.19-3.78-.28-7.6,0-11.37.45-6.07,2.71-11.52,5.62-16.9,2.4-4.43,6.82-6.03,10.21-9.04.52-.46,1.77-.1,2.68-.12.6-.19,1.2-.39,1.8-.58Z"/>
  <path class="cls-7" d="M141.3,198.22c-.54,1.2-.79,2.72-1.68,3.55-4.23,3.93-8.69,7.6-12.9,11.55-.57.54-.21,2.08-.25,2.76,1.97,0,3.08,0,4.19,0-1.32,1.12-2.65,2.24-3.97,3.36-.28-.04-.56-.08-.85-.12-.56-.97-1.12-1.94-1.94-3.36-2.74,2.7-5.15,5.25-7.76,7.59-1.39,1.25-1.05,2.07.12,3.04l.03,1.22c-4.38,3.77-8.72,7.59-13.19,11.24-.75.61-2.08.53-3.14.76.25-1.06.22-2.34.82-3.15,1.1-1.5,2.54-2.77,3.9-4.06,11.56-11.01,23.13-22.01,34.71-32.99.57-.54,1.27-.93,1.91-1.39Z"/>
  <path class="cls-6" d="M213.34,75.37c-1.79-.96-3.58-1.91-5.37-2.87,3.82-.48,7.52-1.15,10.73,2.21,1.8,1.88,4.59,2.8,6.47,4.63,1.91,1.86,3.5,4.18,4.79,6.53,3.94,7.2,4.87,15.1,5.01,23.17.04,2.22,1.12,4.46,1.01,6.65-.14,2.66-.79,5.37-1.67,7.9-.59,1.69-1.96,3.1-2.98,4.64-4.17,0-8.34.07-12.5-.07-1.04-.03-2.06-.74-3.09-1.14,3.72-.31,7.44-.78,11.17-.91,5.25-.18,5.91-.51,6.42-5.63,1.04-10.4,1.12-20.77-3.42-30.53-2.54-5.47-5.69-10.62-11.45-13.33-1.56-.73-3.4-.86-5.11-1.27Z"/>
  <path class="cls-4" d="M272.64,423.87h4.87c0,2.37-.04,4.62.02,6.88.04,1.55.35,3.4,2.32,3.01,1.02-.2,2.29-1.76,2.49-2.88.39-2.19.12-4.51.12-6.95h4.94v13.78c-3.16.18-6.21.49-9.26.49-3.22,0-5.28-1.95-5.46-5.14-.17-2.96-.04-5.93-.04-9.18Z"/>
  <path class="cls-4" d="M262.33,423.62c4.62.04,7.88,2.99,7.92,7.19.04,4.33-3.29,7.44-8,7.47-4.67.02-8.11-3.12-8.1-7.4,0-4.24,3.45-7.29,8.18-7.26ZM266.57,430.72c-2.11-1.42-3.24-2.73-4.53-2.93-1.9-.28-2.68,1.29-2.7,3.11-.02,1.99.94,3.58,2.89,3.26,1.27-.2,2.32-1.77,4.34-3.45Z"/>
  <path class="cls-4" d="M236.7,419.99c6.33-2.3,6.72,3.54,9.33,6.48,2.96-2.21,2.81-8.82,9.14-6.51-2.34,5.84-8.25,10.33-6.34,17.84h-5.68c1.9-7.33-3.99-11.9-6.45-17.81Z"/>
  <path class="cls-7" d="M244.51,140.23c-2.94,3.16-5.77,6.46-8.87,9.46-3.6,3.49-7.47,6.68-11.14,10.1-.75.7-.97,1.97-1.72,2.67-4.01,3.79-8.13,7.47-12.18,11.22-1.22,1.13-2.32,2.39-3.53,3.53-3.66,3.46-7.3,6.95-11.06,10.29-1.3,1.16-2.93,1.95-4.41,2.91,1.13-1.37,2.13-2.87,3.4-4.1,10.36-10.08,20.76-20.13,31.18-30.15,5.59-5.38,11.26-10.67,16.9-16.01.48.03.95.06,1.43.09Z"/>
  <path class="cls-27" d="M294.82,325.99c0,.2,0,.41,0,.61-1.06.15-2.13.44-3.19.44-25.54.03-51.07.03-76.61.01-.78,0-1.55-.2-2.33-.31,1.21-.25,2.42-.71,3.62-.71,24.66-.04,49.33-.08,73.99.04,2.92.01,3.42-1,3.41-3.6-.11-15.58-.05-31.15-.06-46.73,0-4.17,0-4.16-3.62-2.28-.51.27-1.14.3-1.72.44,1.96-1.41,3.92-2.82,5.88-4.23,0,17.75-.02,35.49,0,53.24,0,1.02.4,2.05.61,3.07Z"/>
  <path class="cls-3" d="M210.85,436.66c-6.44,2.75-9.4.69-9.5-5.12-.03-1.41.77-3.22-1.56-3.92-.3-.09-.38-2.08-.01-2.96.5-1.22,1.52-2.22,2.71-3.84h3.71c.15.99.3,2.03.47,3.21.9.16,1.84.33,2.89.52v3.17c-.91.18-1.83.37-3.06.62,0,1.42-.16,2.81.07,4.14.12.69.87,1.33,1.45,1.86.89.83,1.88,1.55,2.83,2.31Z"/>
  <path class="cls-7" d="M222.67,274.23c-.11.63.02,1.56-.36,1.86-3.84,3.06-7.77,5.99-11.65,9-2.41,1.87-4.72,3.86-7.13,5.73-2.32,1.79-4.75,3.43-7.06,5.23-1.41,1.09-2.65,2.39-4,3.55-3,2.58-5.99,5.16-9.03,7.69-1.66,1.37-3.35,2.72-5.16,3.88-.48.31-1.44-.12-2.17-.21,3.85-3.22,7.66-6.49,11.57-9.64,10.11-8.15,20.24-16.28,30.42-24.35,1.38-1.09,3.05-1.83,4.58-2.72Z"/>
  <path class="cls-11" d="M293.63,224.73c.38.59.76,1.19,1.14,1.78-5.97,5.98-11.9,11.99-17.92,17.92-6.58,6.49-13.22,12.92-19.89,19.33-1.19,1.14-2.64,2.02-3.97,3.01-.04-.63-.07-1.27-.11-1.91,3.12-2.96,6.24-5.92,9.37-8.87.77-.73,1.56-1.43,2.36-2.12.83-.7,1.74-1.31,2.52-2.06,7.74-7.53,15.49-15.04,23.15-22.64,1.3-1.29,2.23-2.95,3.34-4.44Z"/>
  <path class="cls-17" d="M294.82,325.99c-.21-1.02-.61-2.05-.61-3.07-.03-17.75-.02-35.5,0-53.24.6-.52,1.21-1.04,1.81-1.56-.28,1.4-.79,2.81-.78,4.21,0,1.47.73,2.93.75,4.4.09,6.08.04,12.16.04,18.24,0,9.37.04,18.74-.05,28.1,0,.98-.75,1.95-1.15,2.92Z"/>
  <path class="cls-24" d="M256.48,221.72c2.48-4.37,6.09-7.54,10.44-9.94.57-.32,1.36-1,1.34-1.49-.09-3.03,2.41-3.49,4.26-4.74,1.81-1.23,3.41-2.78,5-4.31,3.35-3.24,6.56-6.63,9.99-9.79.92-.84,2.42-1.04,3.66-1.53-4.03,3.94-8.04,7.9-12.1,11.81-6.94,6.67-13.91,13.31-20.86,19.97-.57.02-1.14.03-1.71.05l-.02-.02Z"/>
  <path class="cls-20" d="M358.94,392.23c-.01,3.24-1.91,5.09-5.19,5.05-2.94-.03-5.47-2.41-5.44-5.12.03-2.74,2.54-5.05,5.51-5.06,3.26,0,5.13,1.87,5.12,5.13Z"/>
  <path class="cls-27" d="M288.29,273.94c-2.36,2.46-4.47,5.23-7.13,7.31-5.26,4.1-10.83,7.8-16.25,11.7-2,1.44-3.87,3.05-5.91,4.43-.73.5-1.78.54-2.68.79,2.45-2.16,4.79-4.47,7.38-6.43,7.6-5.77,15.29-11.41,22.97-17.07.46-.34,1.07-.48,1.62-.71Z"/>
  <path class="cls-7" d="M191.6,190.4c.47,3.25-2.42,4.23-4.12,5.97-4.98,5.09-10.11,10.05-15.06,15.17-1.69,1.75-3.12,3.65-5.95,2.87,2.53-2.64,5-5.35,7.61-7.92,4.75-4.68,9.55-9.29,14.39-13.88.92-.87,2.08-1.48,3.14-2.22Z"/>
  <path class="cls-3" d="M197.55,437.89h-4.56v-13.93h4.56v13.93Z"/>
  <path class="cls-24" d="M258.24,273.22c-.19,0-.38,0-.57.03-.8.79-1.61,1.59-2.41,2.38,0,0,0,0,0,0-.4.4-.81.79-1.21,1.19-.4.4-.79.8-1.19,1.2-.4.4-.81.8-1.21,1.2-1.21.62-2.54,1.09-3.61,1.9-3.97,3.03-7.81,6.21-11.78,9.23-.69.52-1.76.53-2.66.78,2.07-1.99,4.02-4.12,6.24-5.93,6.79-5.52,13.67-10.91,20.54-16.33.6-.47,1.38-.72,2.07-1.08-.8,1.12-1.57,2.25-2.4,3.34-.56.73-1.2,1.39-1.8,2.09Z"/>
  <path class="cls-11" d="M159.47,163.13c1.49-2.56,2.8-5.14,5.83-6.49,1.53-.68,2.48-2.58,3.87-3.69,1.78-1.43,3.77-2.59,5.62-3.93,2.59-1.88,5.08-3.89,7.73-5.68.96-.65,2.24-.8,3.38-1.18-3.2,2.76-6.31,5.64-9.63,8.24-5.53,4.34-11.19,8.5-16.8,12.73Z"/>
  <path class="cls-10" d="M271.86,124.99c.08.49.15.98.23,1.47-.57.55-1.1,1.51-1.73,1.59-1.93.24-3.96.43-5.86.11-6.05-1.01-9.76,2.39-13.3,6.47-1.43,1.65-3.28,2.93-4.94,4.39-.58.01-1.15.02-1.73.03,0,0-.19-.19-.19-.19,4.26-3.99,8.17-8.47,12.92-11.74,2.26-1.56,6.11-.75,9.22-1.13,1.81-.22,3.59-.66,5.38-1Z"/>
  <path class="cls-24" d="M161.81,149.22c-.82,1.64-1.65,3.28-2.59,5.16-3.68.72-6.2,3.66-8.88,6.47-2.69,2.83-5.93,5.21-8.25,8.29-1.43,1.9-2.76,3.07-5.01,3.31,3.86-4,7.66-8.06,11.61-11.97,3.88-3.84,7.92-7.53,11.89-11.28.41,0,.82.01,1.23.02Z"/>
  <path class="cls-10" d="M293.51,217.88c.04.86.07,1.73.11,2.59-.96.38-2.07.56-2.86,1.16-5.37,4.06-10.64,8.24-16.02,12.27-.85.64-2.13.71-3.21,1.04,4.58-3.75,9.12-7.57,13.77-11.23,2.63-2.07,5.47-3.89,8.21-5.83Z"/>
  <path class="cls-7" d="M185.61,155.65c.3,1.97.03,3.47-2.38,3.94-.86.17-1.65,1.05-2.34,1.73-3.72,3.66-7.35,7.41-11.12,11.01-.6.57-1.77.53-2.68.77,6.18-5.82,12.35-11.64,18.53-17.45Z"/>
  <path class="cls-11" d="M185.9,142.15c.85-1.34,1.46-2.94,2.6-3.96,3.34-2.99,6.88-5.77,10.37-8.58.66-.53,1.5-.83,2.6-1.42-.48-.6-.91-1.15-1.34-1.7.05-.65.1-1.3.16-1.96,1.03.91,2.06,1.81,3.54,3.11-5.42,5.78-11.81,10-17.93,14.52Z"/>
  <path class="cls-27" d="M161.81,149.22c-.41,0-.82-.01-1.23-.02,4.25-4.12,8.46-8.27,12.75-12.33,2.27-2.15,4.7-4.14,7.06-6.2-1.36,2.37-1.84,5.41-5.11,6.32-.67.18-1.12,1.08-1.71,1.61-3.92,3.55-7.84,7.08-11.77,10.62Z"/>
  <path class="cls-28" d="M272.63,100.67c.61.67,1.73,1.32,1.74,2,.14,5.56.25,11.14-.03,16.69-.08,1.6-1.49,3.12-2.29,4.68.19-7.79.38-15.58.58-23.37Z"/>
  <path class="cls-7" d="M240.69,259.87c-1.6,1.82-3.04,3.84-4.85,5.42-3.08,2.69-6.35,5.19-9.66,7.61-.96.7-2.3.88-3.46,1.3,1.33-1.3,2.59-2.68,4.02-3.87,3.65-3.04,7.35-6.01,11.09-8.94.84-.65,1.9-1.02,2.86-1.52Z"/>
  <path class="cls-24" d="M281.53,252.74c-.76,1.24-1.52,2.48-2.28,3.73h0c-.4.4-.8.8-1.2,1.19h0c-2.96,1.98-5.94,3.93-8.88,5.95-.35.24-.48.81-.72,1.23,0,0,0,0,0,0-.8.8-1.59,1.6-2.39,2.4,0,0,0,0,0,0-.86-.03-1.72-.06-2.57-.09,3.85-3.26,7.67-6.57,11.58-9.75,2.06-1.67,4.31-3.12,6.47-4.66Z"/>
  <path class="cls-11" d="M227.98,290.52c.94-1.36,1.73-2.86,2.85-4.05,2.5-2.66,5.07-5.29,7.82-7.69,1.3-1.13,3.09-1.7,4.67-2.52-3.4,3.39-6.74,6.83-10.21,10.13-1.58,1.51-3.41,2.75-5.12,4.12Z"/>
  <path class="cls-21" d="M227.14,291.23c.18-.04.37-.05.55-.06.58.93,1.16,1.86,1.73,2.78-2.39,2.27-4.78,4.55-7.16,6.83-.38.15-.76.31-1.14.46-.42.03-.84.07-1.25.1-.4-.39-.8-.79-1.2-1.18.67-.8,1.3-1.64,2.02-2.39,2.13-2.2,4.3-4.36,6.46-6.54Z"/>
  <path class="cls-11" d="M144.1,118.63c.3,0,.59.01.89.02,0,0,.03.03.03.03.39,1.59.78,3.17,1.17,4.76-.38,1.2-.77,2.4-1.15,3.59-3.61,0-7.22.01-10.82.02-.58,0-1.16,0-1.74,0-2.42,0-4.85,0-7.27.01-.29-.09-.57-.17-.86-.26,1.01-.26,2.02-.74,3.04-.76,4.58-.08,9.17-.12,13.76.02,2.69.08,3.66-.9,3.12-3.57-.25-1.25-.11-2.57-.15-3.86Z"/>
  <path class="cls-7" d="M209.67,132.97c-.29.87-.34,2.01-.93,2.57-3.39,3.23-6.86,6.38-10.43,9.41-.78.67-2.06.76-3.11,1.11,4.43-4.36,8.85-8.71,13.28-13.07.4,0,.79-.02,1.19-.02Z"/>
  <path class="cls-24" d="M131.81,177.32c-.04.59.17,1.44-.14,1.74-3.49,3.28-7.07,6.48-10.62,9.7.02-.51.04-1.02.06-1.52,3.57-3.31,7.14-6.61,10.7-9.92Z"/>
  <path class="cls-24" d="M293.65,244.5c-2.31,1.84-4.55,3.79-6.97,5.49-1.59,1.11-3.43,1.86-5.16,2.77,4.06-3.28,8.12-6.56,12.18-9.84-.02.52-.03,1.05-.05,1.57Z"/>
  <path class="cls-24" d="M113.17,196.46c.86,0,1.76.13,2.58-.06.81-.19,1.53-.7,2.3-1.07-.21.56-.43,1.11-.64,1.67-.35.26-.7.52-1.05.78-.45.33-.9.66-1.35.99-1.52,1.31-3.04,2.61-4.56,3.92-.56-1.15-1.12-2.3-1.68-3.45.9-.89,1.8-1.79,2.7-2.68.57-.03,1.13-.06,1.7-.09Z"/>
  <path class="cls-10" d="M137.95,180.5c-.58-2,.56-2.73,2.13-3.73,2.56-1.63,4.81-3.76,7.12-5.76.94-.81,1.59-1.32,2.02.33-3.76,3.05-7.51,6.11-11.27,9.16Z"/>
  <path class="cls-10" d="M125.85,188.2c2.91-2.32,5.75-4.74,8.77-6.91.85-.62,2.21-.55,3.33-.79-4.04,3.3-8.08,6.59-12.12,9.88,0-.73.01-1.45.02-2.18Z"/>
  <path class="cls-16" d="M329.53,192.83c.02-.76.04-1.51.06-2.27.31-.24.62-.49.93-.73l-.2-.2c-.25.31-.49.61-.74.92-.75.31-1.51.61-2.25.95-1.05.47-2.08.97-3.12,1.46,2.52-2.27,5.05-4.53,7.57-6.8,2.34,2.66,1.61,4.41-2.24,6.67Z"/>
  <path class="cls-4" d="M195.09,415.69c1.52,1.8,3.13,2.91,3.01,3.77-.15,1.05-1.71,2.58-2.73,2.64-.98.05-2.65-1.38-2.89-2.42-.19-.85,1.28-2.08,2.61-3.99Z"/>
  <path class="cls-11" d="M243.31,276.27c-.3-2.08.35-3.52,2.34-4.57,1.34-.71,2.23-2.21,3.5-3.09,1.15-.8,2.55-1.24,3.84-1.84-3.23,3.17-6.46,6.34-9.68,9.51Z"/>
  <path class="cls-27" d="M183.33,326.74c.6-.25,1.2-.7,1.8-.7,6.01-.05,12.02-.05,18.04,0,.6,0,1.2.46,1.81.7-7.21,0-14.43,0-21.64,0Z"/>
  <path class="cls-7" d="M195.2,146.06c-.29.96-.31,2.16-.92,2.85-1.88,2.13-3.9,4.14-6.03,6.03-.61.54-1.75.49-2.64.71,3.2-3.2,6.39-6.39,9.59-9.59Z"/>
  <path class="cls-28" d="M260.5,77.97c4.08-.07,8.07,4.82,7.87,9.63-2.62-3.21-5.25-6.42-7.87-9.63Z"/>
  <path class="cls-19" d="M244.44,304.96c2.59-2.4,5.18-4.81,7.77-7.21.27.55.54,1.1.8,1.65-.66.68-1.28,1.4-1.98,2.04-1.56,1.41-3.16,2.78-4.74,4.17,0,0-.04-.03-.04-.03-.6-.2-1.21-.41-1.81-.61Z"/>
  <path class="cls-27" d="M116.3,227.81c-.01-.41-.02-.81-.03-1.22.84-.66,1.66-1.34,2.51-1.99,2.35-1.77,4.71-3.52,7.07-5.28.28.04.56.08.85.12-3.46,2.79-6.93,5.58-10.39,8.37Z"/>
  <path class="cls-28" d="M268.34,87.57c.88.91,1.97,1.7,2.58,2.77.93,1.65,1.68,3.44,2.17,5.27.15.55-.78,1.4-1.22,2.12-1.18-3.39-2.35-6.77-3.53-10.16Z"/>
  <path class="cls-11" d="M259.96,244.36c-.04.48.12,1.22-.13,1.4-3.12,2.2-6.3,4.31-9.47,6.44,3.2-2.61,6.4-5.23,9.6-7.84Z"/>
  <path class="cls-27" d="M246.29,305.61c1.58-1.39,3.18-2.75,4.74-4.17.7-.63,1.32-1.36,1.98-2.04,1.07-.4,2.15-.8,3.22-1.2.02.2.13.47.04.58-2.73,3.15-5.85,5.73-9.99,6.83Z"/>
  <path class="cls-16" d="M237.33,70.81c3.84.36,7.69.66,11.51,1.13.61.08,1.14.89,1.7,1.36-3.74-.49-7.47-.98-11.21-1.47-.67-.34-1.34-.69-2.01-1.03Z"/>
  <path class="cls-10" d="M267.27,238.51c-.13,2.87-3.69,5.73-7.32,5.87,2.44-1.96,4.88-3.91,7.32-5.87Z"/>
  <path class="cls-27" d="M161.22,326.79c-.87-.19-1.73-.39-2.6-.58.2-.72.17-1.74.65-2.12,2.35-1.9,4.84-3.63,7.28-5.41-.39.83-.79,1.66-1.18,2.48,0,0-.01.01-.01.01-.4.38-.79.76-1.19,1.15,0,0-.05.04-.04.04-3.38.82-4.36,2.31-2.9,4.44Z"/>
  <path class="cls-14" d="M263.48,267.15c.86.03,1.72.06,2.57.09,0,.4,0,.81.01,1.21-.2.4-.4.8-.6,1.2-2.41,1.19-4.81,2.38-7.22,3.57.6-.69,1.25-1.36,1.8-2.09.83-1.09,1.6-2.22,2.4-3.34.34-.22.69-.43,1.03-.64Z"/>
  <path class="cls-11" d="M163.04,189.45c.52-.84.89-1.83,1.58-2.49,1.19-1.13,2.51-2.15,3.89-3.04,1.09-.7,2.35-1.14,3.53-1.7-3,2.41-6,4.82-9,7.23Z"/>
  <path class="cls-11" d="M193,71.32c-.61.81-1.22,1.63-1.83,2.44-1.24-.52-2.45-1.2-3.75-1.5-1.11-.26-2.32-.08-3.48-.1.61-.48,1.22-.95,1.83-1.43,2.41.19,4.82.39,7.23.58Z"/>
  <path class="cls-7" d="M174.94,312.78c-1.91,2.57-3.48,5.53-7.15,6,0-.41-.01-.82-.02-1.24,1.96-1.59,3.92-3.18,5.89-4.77.43,0,.86,0,1.28.01Z"/>
  <path class="cls-27" d="M168.95,326.74c1.48-.24,2.96-.72,4.42-.68,2.95.08,5.89.44,8.83.68-4.42,0-8.84,0-13.26,0Z"/>
  <path class="cls-6" d="M121.11,187.24c-.02.51-.04,1.01-.06,1.52-.94,3.08-3.28,4.83-5.91,4.4,1.99-1.97,3.98-3.95,5.97-5.92Z"/>
  <path class="cls-11" d="M159.24,180.82c.38,1.7.12,2.77-1.86,3.53-1.96.75-3.61,2.33-5.4,3.54,2.42-2.36,4.84-4.71,7.26-7.07Z"/>
  <path class="cls-24" d="M222.26,300.79c2.39-2.28,4.77-4.55,7.16-6.83.25,0,.5.01.75.02-.18.64-.16,1.57-.59,1.88-2.38,1.73-4.87,3.3-7.33,4.93Z"/>
  <path class="cls-6" d="M161.22,326.79c-1.46-2.13-.48-3.62,2.9-4.44.04,1.47.09,2.93.13,4.4-1.01.01-2.02.03-3.03.04Z"/>
  <path class="cls-27" d="M185.74,126.47c-.18,3.03-2.79,2.86-4.72,3.59,2.4-2.32,2.69-5.28,2.52-8.38.73,1.6,1.47,3.19,2.2,4.78Z"/>
  <path class="cls-7" d="M166.48,214.4c-.11,2.97-1.88,4.72-4.82,4.77,1.61-1.59,3.21-3.18,4.82-4.77Z"/>
  <path class="cls-11" d="M237.33,70.81c.67.34,1.34.69,2.01,1.03.19,1.14.38,2.29.57,3.43-3.29.19-2.75-2.82-3.76-4.53.4.02.79.04,1.19.06Z"/>
  <path class="cls-16" d="M251.74,73.5c3.51,0,6.16,1.7,8.37,4.27-2.79-1.42-5.58-2.84-8.37-4.27Z"/>
  <path class="cls-29" d="M108.77,199.23c.56,1.15,1.12,2.3,1.68,3.45-.92.45-1.83.9-2.75,1.34-.87-1.88-.79-3.54,1.08-4.8Z"/>
  <path class="cls-27" d="M131.8,215.06c.94-3.08,3.63-4.02,6.2-5.12-2.07,1.71-4.13,3.41-6.2,5.12Z"/>
  <path class="cls-11" d="M151.97,187.93c-1.96,1.85-3.93,3.7-5.89,5.55,1.96-1.85,3.93-3.7,5.89-5.55Z"/>
  <path class="cls-7" d="M213.79,128.17c.2,2.92-.74,3.94-3.99,4.31-.02-.22-.05-.43-.07-.65.2-.2.4-.4.6-.6.4-.4.8-.8,1.19-1.2.75-.62,1.51-1.24,2.26-1.86Z"/>
  <path class="cls-11" d="M172.03,182.22c.57-3.03,3.18-3.69,5.47-4.73-1.82,1.58-3.65,3.15-5.47,4.73Z"/>
  <path class="cls-7" d="M247.5,254.13c-.21.98-.42,1.96-.64,2.93-1.22.17-2.45.34-3.67.52,1.44-1.15,2.87-2.3,4.31-3.45Z"/>
  <path class="cls-11" d="M157.07,194.23c1.16-2.22,2.75-3.89,5.38-4.25-1.79,1.42-3.59,2.84-5.38,4.25Z"/>
  <path class="cls-16" d="M321.11,195.25c-.66,2.52-2.28,3.9-4.88,4.12,1.63-1.37,3.25-2.75,4.88-4.12Z"/>
  <path class="cls-24" d="M293.58,185.77c.43.22.85.44,1.28.66-1.22,1.15-2.44,2.31-3.66,3.46.8-1.37,1.59-2.75,2.39-4.12Z"/>
  <path class="cls-10" d="M271.49,234.96c-.37,2.41-1.58,3.82-4.22,3.54,1.41-1.18,2.81-2.36,4.22-3.54Z"/>
  <path class="cls-14" d="M185.77,70.73c-.61.48-1.22.95-1.83,1.43-.41.05-.81.1-1.22.16-.19-.16-.37-.32-.56-.48.99-1.09,1.98-2.19,3.28-3.62.14,1.09.24,1.8.33,2.52Z"/>
  <path class="cls-11" d="M145.07,203.81c1.25-1.68,2.07-3.96,4.85-3.55-1.62,1.19-3.23,2.37-4.85,3.55Z"/>
  <path class="cls-27" d="M138.04,209.92c.69-2.05,1.69-3.73,4.24-3.6-1.41,1.2-2.82,2.4-4.24,3.6Z"/>
  <path class="cls-11" d="M177.49,177.5c.6-2.52,2.76-2.98,4.78-3.63-1.59,1.21-3.19,2.42-4.78,3.63Z"/>
  <path class="cls-11" d="M149.91,200.26c1.41-1.22,2.82-2.43,4.22-3.65-1.41,1.22-2.82,2.43-4.22,3.65Z"/>
  <path class="cls-24" d="M252.09,227.66c-.93.02-1.85.03-2.78.05,1.19-.8,2.38-1.6,3.57-2.4,0,0,.03.03.03.03.02.47.04.94.06,1.41-.3.31-.59.61-.89.92Z"/>
  <path class="cls-11" d="M161.85,178.09c.04,1.78-.09,3.4-2.61,2.72.87-.91,1.74-1.81,2.61-2.72Z"/>
  <path class="cls-11" d="M165.27,174.84c.39,2.24-1.25,2.35-2.75,2.59.92-.86,1.83-1.73,2.75-2.59Z"/>
  <path class="cls-7" d="M243.21,257.57c.36,2.06-.44,2.85-2.49,2.28.83-.76,1.66-1.52,2.49-2.28Z"/>
  <path class="cls-24" d="M120.39,194.53c-.77-1.85.1-2.61,1.86-2.77l.02.02c0,.4,0,.8-.01,1.2-.62.52-1.24,1.04-1.86,1.55Z"/>
  <path class="cls-6" d="M167.77,317.54c0,.41.01.82.02,1.24-.81.79-1.61,1.58-2.42,2.37.39-.83.79-1.66,1.18-2.48.41-.37.81-.75,1.22-1.12Z"/>
  <path class="cls-24" d="M233.62,291.12c-.98.83-1.95,1.67-2.93,2.5.98-.83,1.95-1.67,2.93-2.5Z"/>
  <path class="cls-11" d="M155.8,165.38c.41-.39.83-.79,1.24-1.18.41,0,.83.01,1.24.02-.8.66-1.6,1.32-2.41,1.98-.03-.27-.05-.54-.08-.81Z"/>
  <path class="cls-11" d="M151.01,168.44c.85-.19,1.7-.38,2.55-.58-.8.59-1.61,1.17-2.41,1.76,0,0-.21-.03-.21-.03.02-.38.04-.77.07-1.15Z"/>
  <path class="cls-24" d="M125.85,188.2c0,.73-.01,1.45-.02,2.18-.32.13-.65.27-.97.4.33-.86.66-1.72.99-2.58Z"/>
  <path class="cls-24" d="M255.68,224.05c.27-.78.53-1.55.8-2.33,0,0,.02.02.02.02-.02.56-.04,1.12-.06,1.67-.25.21-.51.42-.76.63Z"/>
  <path class="cls-10" d="M117.41,197c.21-.56.43-1.11.64-1.67.4,0,.81.01,1.21.02-.62.55-1.23,1.1-1.85,1.65Z"/>
  <path class="cls-24" d="M122.25,191.75c.86-.33,1.71-.65,2.57-.98-.4.35-.79.7-1.19,1.05-.45-.02-.9-.03-1.36-.05l-.02-.02Z"/>
  <path class="cls-16" d="M322.9,193.95c-.6.44-1.2.87-1.8,1.31.6-.44,1.2-.87,1.8-1.31Z"/>
  <path class="cls-11" d="M256.44,223.41c.02-.56.04-1.12.06-1.67.57-.02,1.14-.03,1.71-.05-.59.57-1.18,1.15-1.77,1.72Z"/>
  <path class="cls-24" d="M252.88,225.31c.36-1.43.98-1.56,1.89-.4.02.18-.05.31-.21.39-.55.01-1.1.03-1.65.04,0,0-.03-.03-.03-.03Z"/>
  <path class="cls-29" d="M114.49,193.59c-.48.48-.95.97-1.43,1.45.48-.48.95-.97,1.43-1.45Z"/>
  <path class="cls-11" d="M252.91,225.34c.55-.01,1.1-.03,1.65-.04-.53.48-1.06.96-1.59,1.45-.02-.47-.04-.94-.06-1.41Z"/>
  <path class="cls-29" d="M113.17,196.46c-.57.03-1.13.06-1.7.09.49-.46.98-.93,1.47-1.39.07.43.15.87.22,1.3Z"/>
  <path class="cls-10" d="M158.29,164.22c-.41,0-.83-.01-1.24-.02.61-.19,1.21-.38,1.82-.57-.19.2-.38.39-.58.59Z"/>
  <path class="cls-10" d="M244.51,140.23c-.48-.03-.95-.06-1.43-.09.42-.43.84-.85,1.26-1.28,0,0,.19.19.19.18.18.38.37.76.55,1.14-.19.02-.38.03-.57.04Z"/>
  <path class="cls-24" d="M137.1,172.44c-.43.41-.85.82-1.28,1.24.43-.41.85-.82,1.28-1.24Z"/>
  <path class="cls-27" d="M174.94,312.78c-.43,0-.85,0-1.28-.01.46-.35.91-.7,1.37-1.06-.03.36-.06.71-.09,1.07Z"/>
  <path class="cls-11" d="M166.52,173.64c-.42.4-.84.81-1.26,1.21.42-.4.84-.81,1.26-1.21Z"/>
  <path class="cls-7" d="M249.32,252.95c-.49.33-.98.66-1.48.98.49-.33.98-.66,1.48-.98Z"/>
  <path class="cls-11" d="M143.85,205c.41-.4.82-.8,1.24-1.21-.41.4-.82.8-1.24,1.21Z"/>
  <path class="cls-10" d="M115.01,198.77c.45-.33.9-.66,1.35-.99-.45.33-.9.66-1.35.99Z"/>
  <path class="cls-7" d="M142.54,196.98c-.41.42-.83.84-1.24,1.25.41-.42.83-.84,1.24-1.25Z"/>
  <path class="cls-10" d="M122.27,191.77c.45.02.9.03,1.36.05-.46.38-.91.77-1.37,1.15,0-.4,0-.8.01-1.2Z"/>
  <path class="cls-11" d="M155.77,195.27c.44-.35.88-.7,1.32-1.05-.44.35-.88.7-1.32,1.05Z"/>
  <path class="cls-29" d="M209.73,131.83c.02.22.05.43.07.65-.05.16-.1.32-.14.49-.4,0-.79.02-1.19.02.42-.39.84-.77,1.26-1.16Z"/>
  <path class="cls-29" d="M211.53,130.04c-.4.4-.8.8-1.19,1.2.4-.4.8-.8,1.19-1.2Z"/>
  <path class="cls-10" d="M155.8,165.38c.03.27.05.54.08.81-.22.14-.44.29-.66.43.19-.41.38-.83.58-1.24Z"/>
  <path class="cls-28" d="M272.02,98.26c.18.68.37,1.36.55,2.04-.18-.68-.37-1.36-.55-2.04Z"/>
  <path class="cls-16" d="M325.97,196.47c.28-.32.55-.63.83-.95-.27.32-.55.63-.83.95Z"/>
  <path class="cls-16" d="M316.27,199.38c-.27.21-.54.41-.81.62.27-.21.54-.41.81-.62Z"/>
  <path class="cls-16" d="M326.77,195.52c.17-.26.35-.52.53-.77-.17.26-.35.52-.53.77Z"/>
  <path class="cls-11" d="M159.98,138.39c.21-.19.41-.38.62-.56-.21.19-.41.38-.62.56Z"/>
  <path class="cls-20" d="M185.73,210.27c3.36-3.03,6.67-6.12,10.1-9.09,6.9-5.97,13.84-11.89,20.8-17.79,7.26-6.15,14.58-12.23,21.85-18.36,5.54-4.67,11.04-9.4,16.58-14.07.58-.49,1.32-.8,1.99-1.19,3.52.5,1.11,3.27,1.86,4.84,0,0,0,0,0,0-.49.29-1.17.46-1.44.89-2.38,3.76-4.76,7.52-6.98,11.38-.52.91-.4,2.19-.57,3.3-.21.4-.41.79-.62,1.19-.39.42-.78.84-1.16,1.26,0,.18,0,.36-.02.54-.82.7-1.88,1.25-2.42,2.12-1.09,1.73-1.78,3.71-2.84,5.46-2.29,3.8-4.85,7.44-7,11.31-1.06,1.9-1.45,4.18-2.14,6.28-2.95,5.23-5.91,10.47-8.86,15.7-1.51,2.68-3.02,5.37-4.55,8.05-1.43,2.51-1.16,3.3,1.76,4.21,3.51,1.1,7.06,2.03,10.56,3.16.82.26,1.79.87,2.11,1.58.18.4-.66,1.53-1.29,2-5,3.73-10.08,7.35-15.09,11.08-6.68,4.97-13.3,10.03-19.97,15.01-11.82,8.83-23.67,17.62-35.51,26.43-1.98,1.47-3.94,2.98-5.91,4.46-2.69,1.25-5.45,2.37-8.03,3.83-.78.44-1.03,1.81-1.53,2.75,0,0,0,0,0,0-1.54.73-3.25,1.23-4.57,2.25-2.26,1.74-4.82,2.57-6.1,1.46,4.03-2.05,4.89-6.37,7.05-9.76,0-.18.01-.36.04-.54,2.78.25,3.3-2.27,4.61-3.79,2.79-3.24,5.57-6.5,8.26-9.82.36-.45.2-1.32.28-1.99,0,0,0,0,0,0,.92-.38,2.1-.52,2.7-1.18,1.29-1.42,2.36-3.06,3.38-4.7,1.24-1.99,2.35-4.07,3.51-6.11,2.42-3.21,4.74-6.49,7.27-9.62,3.9-4.83,7.93-9.55,11.9-14.32.8-.47,2.3-.97,2.27-1.39-.08-1.25-.41-3.15-1.25-3.56-2.59-1.26-5.48-1.88-8.2-2.87-3.3-1.2-7.56-.72-9.5-5.32,3.72-2.8,7.54-5.36,10.98-8.37,2.18-1.9,3.81-4.45,5.68-6.71Z"/>
  <path class="cls-17" d="M185.73,210.27c-1.87,2.26-3.5,4.81-5.68,6.71-3.44,3-7.26,5.57-10.98,8.37,1.94,4.6,6.2,4.11,9.5,5.32,2.73.99,5.62,1.61,8.2,2.87.84.41,1.17,2.31,1.25,3.56.03.41-1.47.92-2.27,1.39.56-2.82-.8-4.04-3.41-4.84-4.83-1.47-9.56-3.26-14.31-5-1.97-.72-2-2.47-.76-3.55,5.59-4.89,11.36-9.59,17.08-14.32.36-.3.92-.34,1.38-.51Z"/>
  <path class="cls-17" d="M143.78,290.56c-2.16,3.39-3.02,7.71-7.05,9.76,1.28,1.11,3.84.28,6.1-1.46,1.32-1.02,3.03-1.52,4.57-2.25-2.87,2.33-5.71,4.69-8.62,6.97-1.79,1.4-3.63,2.75-5.56,3.94-.5.31-1.52.15-2.09-.18-.27-.16-.32-1.4,0-1.79,3.88-4.96,7.85-9.85,11.82-14.74.15-.19.55-.18.84-.26Z"/>
  <path class="cls-17" d="M233.7,198.35c.69-2.11,1.08-4.38,2.14-6.28,2.15-3.87,4.71-7.51,7-11.31,1.06-1.75,1.75-3.73,2.84-5.46.55-.87,1.6-1.42,2.42-2.12-1.66,3.12-3.23,6.29-5,9.35-3.07,5.31-6.26,10.55-9.39,15.82Z"/>
  <path class="cls-17" d="M156.97,274.42c-.08.68.08,1.55-.28,1.99-2.69,3.32-5.47,6.57-8.26,9.82-1.31,1.52-1.83,4.04-4.61,3.79,2.46-3.16,4.85-6.39,7.42-9.47,1.79-2.15,3.81-4.09,5.73-6.13Z"/>
  <path class="cls-17" d="M249.9,170.19c.17-1.11.05-2.39.57-3.3,2.21-3.86,4.59-7.62,6.98-11.38.27-.43.95-.6,1.44-.89-1.09,2.16-2.07,4.37-3.29,6.45-1.81,3.09-3.79,6.08-5.7,9.12Z"/>
  <path class="cls-17" d="M258.89,154.62c-.74-1.57,1.66-4.34-1.86-4.84,1.2-1.25,2.31-2.63,3.66-3.69.5-.39,1.61-.12,2.38.08.15.04.24,1.3-.03,1.76-1.31,2.27-2.76,4.46-4.15,6.68Z"/>
  <path class="cls-17" d="M166.57,262.42c-1.17,2.04-2.27,4.12-3.51,6.11-1.02,1.64-2.09,3.28-3.38,4.7-.6.66-1.78.81-2.7,1.18,1.94-2.81,3.78-5.69,5.85-8.39,1.04-1.36,2.49-2.41,3.75-3.6Z"/>
  <path class="cls-17" d="M147.41,296.61c.49-.94.75-2.31,1.53-2.75,2.57-1.46,5.34-2.58,8.03-3.83-3.19,2.19-6.37,4.39-9.56,6.58Z"/>
  <path class="cls-7" d="M245.08,140.19c-.18-.38-.37-.76-.55-1.14.58-.01,1.15-.02,1.73-.03-.39.39-.79.78-1.18,1.17Z"/>
  <path class="cls-17" d="M248.12,172.64c.39-.42.78-.84,1.16-1.26-.39.42-.78.84-1.16,1.26Z"/>
  <path class="cls-1" d="M279.24,256.47c.4.57.97,1.09,1.17,1.72.57,1.81,1.2,3.65,1.38,5.52.11,1.1-.59,2.28-.92,3.43-.74-.67-1.54-1.29-2.21-2.02-.34-.37-.45-.94-.91-1.95-.91,2.29-2.44,3.66-1.29,6.03.47.97-.29,2.55-.46,3.63-1.77-.61-2.86-.99-3.94-1.36,0-1,0-2,0-3.01.83-.42,1.65-.83,2.48-1.25-.06-.27-.11-.55-.17-.82l-2.3-.32s-.02-.02-.02-.02c-.92-4.07,2.25-3.57,4.21-3.75.69-1.81,1.24-3.22,1.78-4.64,0,0,0,0,0,0,.4-.4.8-.8,1.2-1.19h0Z"/>
  <path class="cls-6" d="M219.86,301.34c.42-.03.84-.07,1.25-.1-1.14,1.4-2.07,3.07-3.46,4.16-3.88,3.05-7.94,5.85-11.94,8.76-.38-.31-.76-.61-1.14-.92.83-1.59,1.5-3.3,2.52-4.76,1.24-1.77,2.57-3.6,4.24-4.92,1.61-1.27,3.71-1.91,5.59-2.82-1.42,1.6-2.84,3.21-4.25,4.81-.17.22-.35.43-.52.65-.05.19-.1.38-.14.57-1.5,1.19-3.01,2.39-4.51,3.58.24.27.47.54.71.81,1.71-1.44,3.42-2.89,5.14-4.33,2.17-1.83,4.34-3.67,6.51-5.5Z"/>
  <path class="cls-24" d="M227.14,291.23c-2.16,2.18-4.33,4.34-6.46,6.54-.72.75-1.35,1.59-2.02,2.39-.24.02-.48.03-.71.04.16-3.73,5.43-8.87,9.19-8.97Z"/>
  <path class="cls-14" d="M278.04,257.66c-.54,1.42-1.09,2.83-1.78,4.64-1.96.18-5.13-.32-4.21,3.75-1.2-.4-2.4-.8-3.6-1.21.23-.42.36-.98.72-1.23,2.94-2.02,5.91-3.98,8.88-5.95Z"/>
  <path class="cls-29" d="M244.44,304.96c.6.2,1.21.41,1.81.61-1.24,1.41-2.48,2.83-3.92,4.47-.5-.12-1.42-.36-3.2-.8,1.67-1.67,2.92-2.93,4.18-4.2.38-.03.76-.06,1.14-.09Z"/>
  <path class="cls-19" d="M217.95,300.21c.24-.01.48-.03.71-.04.4.39.8.79,1.2,1.18-2.17,1.83-4.34,3.67-6.51,5.5-.45-.02-.89-.04-1.34-.06.04-.19.09-.38.14-.57.17-.22.35-.43.52-.65,1.42-1.6,2.84-3.21,4.25-4.81.34-.18.67-.36,1.01-.55Z"/>
  <path class="cls-14" d="M272.06,266.06l2.3.32c.06.27.11.55.17.82-.83.42-1.65.83-2.48,1.25,0-.8,0-1.59,0-2.39Z"/>
  <path class="cls-14" d="M255.26,275.63c.8-.79,1.61-1.59,2.41-2.38v2.77c-.99-.16-1.7-.28-2.41-.39Z"/>
  <path class="cls-14" d="M266.05,267.24c.8-.8,1.59-1.6,2.39-2.4-.8.8-1.59,1.6-2.39,2.4Z"/>
  <path class="cls-1" d="M270.26,276.84c-.8,0-1.6,0-2.4,0,.35-.38.81-1.14,1.03-1.08.52.15.92.69,1.37,1.08Z"/>
  <path class="cls-14" d="M251.66,279.22c.4-.4.81-.8,1.21-1.2-.4.4-.81.8-1.21,1.2Z"/>
  <path class="cls-6" d="M164.16,322.31c.4-.38.79-.76,1.19-1.15-.4.38-.79.76-1.19,1.15Z"/>
  <path class="cls-14" d="M254.05,276.82c.4-.4.81-.79,1.21-1.19-.4.4-.81.79-1.21,1.19Z"/>
  <path class="cls-1" d="M265.46,269.65c.2-.4.4-.8.6-1.2-.2.4-.4.8-.6,1.2Z"/>
  <path class="cls-14" d="M262.21,276.08c-.07.16-.14.33-.21.49-.16-.07-.42-.11-.47-.22-.05-.12.12-.32.19-.48.16.07.33.14.49.21Z"/>
  <path class="cls-10" d="M134.2,127.05c3.61,0,7.21-.01,10.82-.02-.37.38-.73,1.09-1.11,1.1-2.85.09-5.7.08-8.55-.01-.4-.01-.77-.7-1.16-1.07Z"/>
  <path class="cls-10" d="M125.19,127.06c2.42,0,4.85,0,7.27-.01-1.67,1.64-5.54,1.65-7.27.01Z"/>
  <path class="cls-10" d="M146.18,123.44c-.39-1.59-.78-3.17-1.17-4.76.39,1.59.78,3.17,1.17,4.76Z"/>
  <path class="cls-6" d="M204.92,71.88c-1.58-.19-3.17-.38-4.75-.57,1.68-.64,3.4-1.58,4.75.57Z"/>
  <path class="cls-14" d="M178.58,72.52c-.6.19-1.2.39-1.8.58.6-.19,1.2-.39,1.8-.58Z"/>
  <path class="cls-11" d="M198.9,126.46c-.36,0-.72-.01-1.08-.02.36,0,.72.01,1.08.02Z"/>
  <path class="cls-21" d="M319.01,380.52v-9.6c2.61.16,5.14.09,7.6.52,2.55.44,3.53,2.47,3.36,4.89-.16,2.35-1.54,3.93-3.92,4.15-2.24.2-4.51.04-7.04.04Z"/>
  <path class="cls-21" d="M186.03,380.56v-9.32c2.43,0,4.79-.23,7.08.06,2.65.33,3.95,2.25,3.83,4.84-.12,2.63-1.67,4.22-4.34,4.39-2.06.13-4.14.03-6.58.03Z"/>
  <path class="cls-10" d="M151.01,168.44c-.02.38-.04.77-.07,1.15-.29-.16-.59-.33-.88-.49.31-.22.63-.44.94-.66Z"/>
  <path class="cls-11" d="M293.67,224.15c.07.13.15.26.19.4,0,.03-.13.1-.2.15,0-.18,0-.37.02-.55Z"/>
  <path class="cls-1" d="M125.84,219.32c-2.36,1.76-4.72,3.51-7.07,5.28-.85.64-1.67,1.32-2.51,1.99-1.17-.97-1.51-1.79-.12-3.04,2.6-2.34,5.02-4.89,7.76-7.59.82,1.42,1.38,2.39,1.94,3.36Z"/>
  <path class="cls-21" d="M266.57,430.72c-2.02,1.68-3.07,3.24-4.34,3.45-1.95.32-2.92-1.27-2.89-3.26.02-1.82.8-3.39,2.7-3.11,1.3.19,2.43,1.51,4.53,2.93Z"/>
  <path class="cls-14" d="M279.24,256.47c-.4.4-.8.8-1.2,1.19.4-.4.8-.8,1.2-1.19Z"/>
  <path class="cls-28" d="M329.58,190.55c.25-.31.49-.61.74-.92l.2.2c-.31.24-.62.49-.93.73,0,0-.01-.01-.01-.01Z"/>
  <path class="cls-29" d="M212.02,306.78c.44.02.89.04,1.34.06-1.71,1.44-3.42,2.89-5.14,4.33-.24-.27-.47-.54-.71-.81,1.5-1.19,3.01-2.39,4.51-3.58Z"/>
  <path class="cls-29" d="M212.68,305.56c-.17.22-.35.43-.52.65.17-.22.35-.43.52-.65Z"/>
</svg>