<?xml version="1.0" encoding="UTF-8"?>
<svg xmlns="http://www.w3.org/2000/svg" version="1.1" viewBox="0 0 247.5 260.6">
  <defs>
    <style>
      .cls-1 {
        fill: #fff;
        stroke: #000;
        stroke-miterlimit: 10;
      }
    </style>
  </defs>
  <!-- Generator: Adobe Illustrator 28.6.0, SVG Export Plug-In . SVG Version: 1.2.0 Build 709)  -->
  <g>
    <g id="Layer_1">
      <path class="cls-1" d="M14.8,250.7l76.3-3.4v-109.6l82.9,109.6,67.4,3.4-1.7-239-79.7-4.1-2.5,83.8c0,4.9-66.5-78.9-66.5-78.9L10.5,10.3l-1.3,226.2,5.6,15.3"/>
      <g>
        <path d="M.5,129.4c0-36,.3-72-.2-108.1C.2,7.8,6.8.4,20.9.4c18.1,0,36.2,0,54.2,1.1,14,.9,24.6,9.2,33.2,19.9,11.5,14.2,23,28.4,34.7,42.5,1,1.2,2.9,1.6,4.4,2.3.6-1.4,1.6-2.8,1.6-4.3.1-13.2,0-26.3,0-39.5,0-14.4,6.7-21.7,21.1-22,18.9-.4,37.9-.5,56.8,0,13.8.3,20,8.6,19.9,20.9-.2,72.7-.1,145.4-.1,218.1,0,12.8-7.2,20-20.1,20-11,0-22-.4-32.9,0-21.1,1-36.9-7.4-49.3-24.5-11.4-15.8-23.8-30.8-36.1-45.9-1.4-1.7-4.2-2.3-6.4-3.4-1,2.3-2.7,4.6-2.8,6.9-.3,14.3-.7,28.7,0,43,.6,13.1-7.7,23.4-22.9,23.7-19.4.4-38.9.3-58.3,0-10.2-.1-17.7-8.2-17.7-18.4,0-37.2,0-74.4,0-111.6h0ZM157.3,128.6c-.8-1-1.3-1.7-1.8-2.3-14.5-18-28.9-36.1-43.5-54.1-12.2-15.1-24.7-30.1-36.9-45.2-6.2-7.8-13.8-12.1-24-11.7-8.8.3-17.6,0-26.4,0-8.3,0-9.8,1.6-9.8,10,0,28.2,0,56.4,0,84.5,0,41.7,0,83.4,0,125,0,7.6,1.8,9.3,9.5,9.3,9.3,0,18.6,0,27.9,0,7.8,0,9.6-1.8,9.7-9.8.1-17.3.1-34.7.1-52,0-30.7,0-61.3,0-92,0-1.6,1-3.2,1.6-4.9,1.3.9,2.8,1.6,3.7,2.8,24.6,32,49.2,64,73.8,96.1,12.3,16.1,24.5,32.3,36.6,48.6,5.8,7.9,13.1,11.8,23,11.3,7.5-.3,15,0,22.4,0,7.5,0,9.1-1.6,9.1-9,0-39.7-.1-79.3-.2-118.9,0-3.3-.3-6.6-.4-9.6-4.2-1.1-5.4,1.2-6,4.2-.3,1.8-.5,3.6-.5,5.4,0,35.7-.1,71.4-.2,107v5.8c-8.9.9-13.6-2.6-14.8-10.7-.2-1.6-.2-3.3-.2-5,0-56,0-112,0-168,0-4.5,1.2-8,4-11.4,4.8-5.6,9.2-11.5,14.5-18.2-3.9-.2-6.7-.4-9.5-.4-15,0-29.9,0-44.9,0-8.6,0-10.5,1.9-10.5,10.6,0,24.7,0,49.4-.1,74,0,1.8-1,3.5-1.6,5.3-1.8-1-4-1.6-5.2-3-6.3-7.5-12.3-15.3-18.5-22.9-14.7-18.1-29.4-36.1-44.2-54.1-4.5-5.5-7.6-6.7-14.7-6.3,28.4,34.9,56.2,69.2,84.2,103.7-2.2,2-4,3.7-6.4,5.9h0s0,0,0,0ZM84.3,174.9c-.3-6.4-.6-12.5-.9-19.4-7.1,4.9-8.5,10-6.2,19.4h7.1ZM83.7,194v-9.1h-6.8v9.1h6.8ZM76.7,212.9h7.1v-8.6h-7.1v8.6ZM83.8,232v-8.6h-6.9v8.6h6.9ZM231.5,31.7c-6.3,3.1-7.2,5.1-5.8,11.5h5.8v-11.5ZM225.1,62.8h6.5v-9.2h-6.5v9.2ZM225.4,73.6v9.4h6.3v-9.4h-6.3Z"/>
        <path d="M28.1,31.5c6.7-1.7,11.3.8,15.1,6.1,4.5,6.4,9.5,12.4,14.4,18.8-2.9,2.6-5.6,5-8.6,7.6-3.1-3.8-6.1-7.3-9.8-11.7v163.6c3.3.2,6.2.3,9.3.5v12.8h-20.4V31.5h0Z"/>
        <path d="M167.2,172.5c2.9-2.5,5.4-4.6,8.1-6.9,3.6,4.5,7,8.7,11.1,13.8V44.5h-9.3v-13.1h20.1v168.9c0,.8.2,1.7,0,2.5-.3,1.2-.9,2.3-1.4,3.4-1.2-.6-2.9-.9-3.7-1.9-5.8-7.3-11.5-14.7-17.2-22-2.4-3.1-4.9-6.3-7.7-9.9h0Z"/>
        <path d="M93.4,76.4c2.6-2.3,4.9-4.2,7.5-6.4,20.7,25.7,41.3,51.3,62.2,77.3-2.5,2.3-4.9,4.5-7.6,7-20.6-25.9-41.1-51.6-62-78h0Z"/>
      </g>
    </g>
  </g>
</svg>